<?xml version="1.0" encoding="UTF-8"?>
<svg xmlns="http://www.w3.org/2000/svg" xmlns:xlink="http://www.w3.org/1999/xlink" width="24px" height="24px" viewBox="0 0 24 24" version="1.1">
<g id="surface1">
<path style=" stroke:none;fill-rule:nonzero;fill:rgb(47.843137%,61.960784%,99.215686%);fill-opacity:1;" d="M 21.230469 13.492188 C 21.203125 13.75 20.96875 13.878906 20.765625 13.996094 C 20.578125 14.105469 20.390625 14.214844 20.207031 14.324219 C 19.90625 14.496094 19.609375 14.667969 19.308594 14.84375 C 18.933594 15.0625 18.558594 15.277344 18.183594 15.496094 C 17.773438 15.734375 17.359375 15.976562 16.945312 16.214844 C 16.53125 16.457031 16.117188 16.695312 15.699219 16.9375 C 15.316406 17.160156 14.9375 17.382812 14.554688 17.605469 C 14.242188 17.785156 13.933594 17.964844 13.621094 18.144531 C 13.417969 18.261719 13.214844 18.382812 13.011719 18.5 C 12.855469 18.589844 12.710938 18.675781 12.535156 18.730469 C 12.078125 18.859375 11.570312 18.816406 11.160156 18.578125 C 11.011719 18.488281 10.859375 18.40625 10.714844 18.320312 C 10.441406 18.160156 10.171875 18.007812 9.898438 17.851562 C 9.542969 17.644531 9.1875 17.4375 8.832031 17.234375 C 8.425781 17 8.019531 16.765625 7.613281 16.53125 C 7.191406 16.289062 6.773438 16.046875 6.355469 15.804688 C 5.957031 15.574219 5.5625 15.347656 5.164062 15.117188 L 4.152344 14.535156 C 3.910156 14.394531 3.664062 14.253906 3.425781 14.113281 C 3.3125 14.050781 3.203125 13.988281 3.09375 13.921875 C 2.921875 13.820312 2.75 13.660156 2.75 13.445312 C 2.75 13.644531 2.75 13.839844 2.746094 14.039062 C 2.746094 14.109375 2.742188 14.183594 2.746094 14.253906 C 2.761719 14.445312 2.910156 14.59375 3.066406 14.6875 C 3.164062 14.746094 3.261719 14.796875 3.359375 14.855469 C 3.613281 15 3.867188 15.148438 4.121094 15.292969 C 4.484375 15.503906 4.847656 15.714844 5.214844 15.925781 C 5.648438 16.175781 6.085938 16.425781 6.519531 16.679688 C 6.96875 16.941406 7.421875 17.199219 7.878906 17.464844 C 8.308594 17.710938 8.738281 17.960938 9.167969 18.207031 C 9.527344 18.414062 9.882812 18.621094 10.242188 18.828125 C 10.484375 18.96875 10.726562 19.105469 10.96875 19.246094 C 11.109375 19.328125 11.246094 19.417969 11.398438 19.472656 C 11.875 19.648438 12.433594 19.609375 12.871094 19.355469 C 13.039062 19.257812 13.203125 19.160156 13.371094 19.0625 C 13.679688 18.886719 13.984375 18.707031 14.289062 18.53125 C 14.691406 18.296875 15.089844 18.066406 15.488281 17.832031 C 15.9375 17.570312 16.386719 17.3125 16.832031 17.050781 L 18.171875 16.269531 C 18.574219 16.035156 18.976562 15.804688 19.378906 15.570312 C 19.691406 15.390625 20 15.207031 20.3125 15.027344 C 20.484375 14.925781 20.65625 14.828125 20.828125 14.726562 C 20.878906 14.695312 20.933594 14.664062 20.984375 14.628906 C 21.113281 14.53125 21.21875 14.394531 21.21875 14.222656 C 21.222656 14.136719 21.21875 14.054688 21.21875 13.964844 C 21.21875 13.796875 21.21875 13.621094 21.222656 13.449219 C 21.230469 13.46875 21.230469 13.480469 21.230469 13.492188 C 21.230469 13.5 21.230469 13.488281 21.230469 13.492188 Z M 21.230469 13.492188 "/>
<path style=" stroke:none;fill-rule:nonzero;fill:rgb(89.411765%,92.54902%,97.647059%);fill-opacity:1;" d="M 20.898438 12.988281 C 21.34375 13.246094 21.34375 13.667969 20.902344 13.925781 L 12.828125 18.613281 C 12.386719 18.871094 11.664062 18.871094 11.21875 18.613281 L 3.089844 13.925781 C 2.644531 13.667969 2.644531 13.246094 3.085938 12.988281 L 11.160156 8.296875 C 11.601562 8.039062 12.324219 8.039062 12.769531 8.296875 Z M 20.898438 12.988281 "/>
<path style=" stroke:none;fill-rule:nonzero;fill:rgb(16.470588%,16.470588%,73.72549%);fill-opacity:1;" d="M 13.378906 4.398438 C 13.371094 4.394531 13.363281 4.390625 13.355469 4.390625 C 13.355469 4.390625 13.355469 4.390625 13.355469 4.386719 C 13.351562 4.386719 13.351562 4.386719 13.347656 4.386719 C 13.34375 4.386719 13.339844 4.382812 13.339844 4.382812 C 13.335938 4.382812 13.332031 4.378906 13.328125 4.378906 C 13.328125 4.378906 13.324219 4.378906 13.320312 4.378906 L 13.316406 4.378906 C 13.308594 4.375 13.304688 4.375 13.296875 4.375 L 13.246094 4.375 C 13.242188 4.375 13.238281 4.378906 13.234375 4.378906 C 13.230469 4.378906 13.226562 4.378906 13.222656 4.378906 C 13.21875 4.378906 13.214844 4.378906 13.210938 4.382812 C 13.210938 4.382812 13.207031 4.386719 13.203125 4.386719 C 13.195312 4.386719 13.1875 4.390625 13.179688 4.394531 C 13.175781 4.398438 13.171875 4.398438 13.167969 4.398438 C 13.167969 4.398438 13.167969 4.398438 13.164062 4.398438 C 13.152344 4.40625 13.132812 4.414062 13.121094 4.421875 L 7.683594 7.5625 C 7.664062 7.574219 7.644531 7.585938 7.625 7.601562 C 7.625 7.601562 7.621094 7.605469 7.617188 7.609375 C 7.601562 7.621094 7.582031 7.636719 7.566406 7.652344 L 7.5625 7.65625 C 7.558594 7.660156 7.554688 7.660156 7.554688 7.667969 C 7.542969 7.675781 7.539062 7.683594 7.53125 7.691406 L 7.515625 7.707031 C 7.511719 7.710938 7.507812 7.71875 7.503906 7.722656 C 7.5 7.726562 7.496094 7.730469 7.492188 7.734375 C 7.492188 7.738281 7.488281 7.742188 7.484375 7.742188 C 7.484375 7.75 7.480469 7.753906 7.476562 7.757812 C 7.472656 7.761719 7.472656 7.765625 7.46875 7.765625 C 7.464844 7.773438 7.460938 7.777344 7.457031 7.785156 C 7.457031 7.785156 7.453125 7.789062 7.449219 7.792969 C 7.449219 7.796875 7.449219 7.796875 7.449219 7.796875 C 7.441406 7.808594 7.4375 7.820312 7.429688 7.828125 C 7.429688 7.828125 7.429688 7.832031 7.425781 7.832031 C 7.425781 7.832031 7.425781 7.835938 7.421875 7.835938 C 7.417969 7.84375 7.414062 7.851562 7.410156 7.859375 C 7.410156 7.863281 7.410156 7.867188 7.40625 7.871094 C 7.402344 7.875 7.402344 7.878906 7.402344 7.882812 C 7.398438 7.882812 7.398438 7.890625 7.398438 7.890625 C 7.390625 7.902344 7.390625 7.90625 7.386719 7.917969 C 7.386719 7.917969 7.382812 7.917969 7.382812 7.921875 L 7.382812 7.925781 C 7.378906 7.9375 7.375 7.945312 7.367188 7.957031 C 7.367188 7.960938 7.367188 7.960938 7.367188 7.960938 C 7.363281 7.964844 7.363281 7.96875 7.363281 7.972656 C 7.359375 7.976562 7.355469 7.984375 7.355469 7.988281 C 7.351562 7.996094 7.351562 8 7.351562 8 C 7.347656 8.007812 7.347656 8.011719 7.34375 8.015625 C 7.34375 8.019531 7.34375 8.023438 7.34375 8.023438 C 7.339844 8.03125 7.339844 8.035156 7.339844 8.042969 C 7.335938 8.046875 7.335938 8.054688 7.332031 8.058594 C 7.332031 8.0625 7.332031 8.066406 7.332031 8.066406 C 7.332031 8.070312 7.328125 8.078125 7.328125 8.082031 C 7.328125 8.089844 7.324219 8.101562 7.324219 8.109375 C 7.324219 8.113281 7.324219 8.113281 7.320312 8.117188 L 7.320312 8.125 C 7.320312 8.148438 7.316406 8.167969 7.316406 8.1875 L 7.335938 14.4375 C 7.335938 14.550781 7.378906 14.632812 7.445312 14.671875 L 7.84375 14.902344 C 7.777344 14.867188 7.738281 14.785156 7.734375 14.667969 L 7.714844 8.421875 C 7.714844 8.398438 7.71875 8.378906 7.71875 8.359375 C 7.71875 8.351562 7.71875 8.347656 7.722656 8.339844 C 7.726562 8.332031 7.726562 8.324219 7.726562 8.3125 C 7.730469 8.304688 7.730469 8.300781 7.730469 8.292969 C 7.734375 8.285156 7.734375 8.28125 7.738281 8.273438 C 7.738281 8.265625 7.742188 8.257812 7.742188 8.246094 C 7.746094 8.242188 7.746094 8.238281 7.75 8.234375 C 7.75 8.222656 7.753906 8.214844 7.757812 8.207031 C 7.761719 8.199219 7.761719 8.199219 7.761719 8.195312 C 7.765625 8.179688 7.773438 8.167969 7.777344 8.152344 C 7.777344 8.152344 7.78125 8.152344 7.78125 8.148438 C 7.785156 8.136719 7.792969 8.125 7.796875 8.113281 C 7.800781 8.109375 7.800781 8.105469 7.800781 8.101562 C 7.808594 8.089844 7.8125 8.082031 7.820312 8.070312 C 7.824219 8.066406 7.824219 8.066406 7.824219 8.0625 C 7.832031 8.050781 7.839844 8.035156 7.847656 8.023438 C 7.851562 8.019531 7.855469 8.019531 7.855469 8.015625 C 7.863281 8.007812 7.867188 8 7.875 7.988281 C 7.878906 7.984375 7.882812 7.980469 7.882812 7.976562 C 7.890625 7.96875 7.894531 7.960938 7.902344 7.953125 C 7.90625 7.949219 7.910156 7.941406 7.914062 7.9375 C 7.917969 7.933594 7.925781 7.925781 7.929688 7.921875 C 7.9375 7.914062 7.945312 7.90625 7.953125 7.894531 L 7.964844 7.882812 C 7.980469 7.867188 7.996094 7.855469 8.015625 7.839844 C 8.019531 7.835938 8.023438 7.835938 8.023438 7.832031 C 8.042969 7.820312 8.0625 7.804688 8.082031 7.796875 L 13.519531 4.65625 C 13.535156 4.644531 13.550781 4.636719 13.5625 4.632812 C 13.566406 4.628906 13.574219 4.625 13.578125 4.625 C 13.585938 4.625 13.59375 4.621094 13.601562 4.617188 C 13.609375 4.613281 13.613281 4.613281 13.621094 4.613281 C 13.625 4.609375 13.628906 4.609375 13.632812 4.609375 C 13.640625 4.609375 13.648438 4.609375 13.652344 4.609375 L 13.691406 4.609375 C 13.703125 4.609375 13.710938 4.609375 13.71875 4.609375 C 13.722656 4.609375 13.726562 4.609375 13.726562 4.613281 C 13.734375 4.613281 13.742188 4.613281 13.75 4.617188 C 13.75 4.617188 13.753906 4.621094 13.753906 4.621094 C 13.765625 4.621094 13.773438 4.625 13.777344 4.632812 Z M 13.378906 4.398438 "/>
<path style=" stroke:none;fill-rule:nonzero;fill:rgb(25.098039%,25.098039%,100%);fill-opacity:1;" d="M 13.519531 4.65625 C 13.71875 4.539062 13.882812 4.632812 13.882812 4.863281 L 13.902344 11.113281 C 13.902344 11.339844 13.738281 11.625 13.539062 11.742188 L 8.101562 14.882812 C 7.902344 14.996094 7.738281 14.902344 7.738281 14.675781 L 7.71875 8.425781 C 7.71875 8.195312 7.882812 7.914062 8.082031 7.796875 Z M 13.519531 4.65625 "/>
<path style=" stroke:none;fill-rule:nonzero;fill:rgb(15.686275%,15.686275%,80.784314%);fill-opacity:1;" d="M 12.253906 9.214844 C 12.390625 9.136719 12.496094 9.203125 12.496094 9.355469 C 12.496094 9.507812 12.390625 9.695312 12.253906 9.769531 L 9.699219 11.246094 L 9.703125 11.757812 C 9.703125 11.84375 9.636719 11.9375 9.570312 11.976562 C 9.535156 11.996094 9.5 12.003906 9.472656 11.984375 L 8.734375 11.480469 C 8.664062 11.433594 8.722656 11.253906 8.832031 11.191406 L 9.171875 10.996094 L 9.570312 10.765625 Z M 11.625 7.539062 C 11.660156 7.519531 11.695312 7.515625 11.722656 7.53125 L 12.460938 8.035156 C 12.535156 8.082031 12.476562 8.261719 12.363281 8.324219 L 12.023438 8.523438 L 11.628906 8.75 L 8.941406 10.296875 C 8.808594 10.375 8.699219 10.3125 8.699219 10.160156 C 8.699219 10.007812 8.808594 9.820312 8.941406 9.742188 L 11.496094 8.269531 L 11.492188 7.757812 C 11.492188 7.671875 11.558594 7.578125 11.625 7.539062 Z M 11.625 7.539062 "/>
<path style=" stroke:none;fill-rule:nonzero;fill:rgb(52.156863%,52.156863%,52.156863%);fill-opacity:1;" d="M 9.941406 12.265625 L 9.652344 12.097656 C 9.648438 12.097656 9.648438 12.097656 9.648438 12.097656 L 9.9375 12.265625 C 9.941406 12.265625 9.941406 12.265625 9.941406 12.265625 "/>
<path style=" stroke:none;fill-rule:nonzero;fill:rgb(67.45098%,77.254902%,91.764706%);fill-opacity:1;" d="M 12.601562 9.3125 L 12.589844 9.308594 L 12.585938 9.308594 C 12.582031 9.308594 12.582031 9.308594 12.582031 9.304688 C 12.578125 9.304688 12.578125 9.300781 12.574219 9.300781 C 12.570312 9.300781 12.570312 9.300781 12.566406 9.300781 L 12.558594 9.300781 C 12.554688 9.300781 12.550781 9.296875 12.546875 9.296875 L 12.511719 9.296875 C 12.507812 9.296875 12.507812 9.296875 12.503906 9.300781 C 12.5 9.300781 12.496094 9.300781 12.496094 9.300781 L 12.488281 9.300781 C 12.488281 9.300781 12.484375 9.304688 12.484375 9.304688 C 12.480469 9.308594 12.472656 9.308594 12.46875 9.308594 C 12.464844 9.308594 12.464844 9.3125 12.460938 9.3125 C 12.449219 9.320312 12.4375 9.324219 12.429688 9.328125 L 9.742188 10.878906 L 9.347656 11.105469 L 9.007812 11.300781 C 9 11.304688 8.992188 11.3125 8.984375 11.316406 C 8.980469 11.320312 8.980469 11.324219 8.976562 11.324219 C 8.972656 11.328125 8.96875 11.332031 8.960938 11.335938 L 8.953125 11.34375 C 8.949219 11.347656 8.949219 11.347656 8.949219 11.351562 L 8.945312 11.351562 C 8.941406 11.359375 8.9375 11.363281 8.9375 11.363281 L 8.933594 11.367188 C 8.933594 11.371094 8.929688 11.375 8.925781 11.375 C 8.925781 11.378906 8.921875 11.382812 8.921875 11.386719 C 8.917969 11.390625 8.914062 11.394531 8.914062 11.398438 C 8.910156 11.398438 8.910156 11.40625 8.910156 11.40625 C 8.90625 11.410156 8.902344 11.414062 8.902344 11.417969 C 8.902344 11.421875 8.902344 11.425781 8.898438 11.429688 C 8.898438 11.433594 8.898438 11.433594 8.894531 11.441406 C 8.894531 11.441406 8.890625 11.445312 8.890625 11.449219 L 8.890625 11.453125 C 8.890625 11.457031 8.890625 11.460938 8.886719 11.464844 C 8.886719 11.464844 8.886719 11.464844 8.886719 11.46875 L 8.886719 11.476562 C 8.886719 11.480469 8.882812 11.484375 8.882812 11.488281 L 8.882812 11.527344 C 8.882812 11.535156 8.886719 11.546875 8.886719 11.550781 L 8.886719 11.554688 C 8.890625 11.5625 8.890625 11.566406 8.898438 11.574219 C 8.898438 11.574219 8.898438 11.574219 8.898438 11.578125 C 8.902344 11.582031 8.910156 11.589844 8.914062 11.59375 L 9.652344 12.09375 L 9.941406 12.261719 L 9.203125 11.761719 C 9.195312 11.757812 9.191406 11.75 9.191406 11.746094 C 9.191406 11.746094 9.1875 11.746094 9.1875 11.742188 C 9.183594 11.738281 9.179688 11.730469 9.179688 11.722656 C 9.175781 11.714844 9.175781 11.707031 9.171875 11.699219 L 9.171875 11.65625 C 9.171875 11.652344 9.175781 11.648438 9.175781 11.640625 L 9.175781 11.636719 C 9.179688 11.628906 9.179688 11.625 9.179688 11.617188 L 9.1875 11.59375 C 9.191406 11.585938 9.195312 11.582031 9.195312 11.574219 C 9.203125 11.566406 9.203125 11.558594 9.207031 11.550781 C 9.214844 11.546875 9.21875 11.539062 9.222656 11.535156 L 9.226562 11.53125 C 9.230469 11.527344 9.234375 11.519531 9.238281 11.515625 C 9.242188 11.511719 9.242188 11.511719 9.242188 11.507812 L 9.253906 11.5 C 9.257812 11.492188 9.261719 11.488281 9.265625 11.488281 C 9.269531 11.484375 9.273438 11.480469 9.273438 11.480469 C 9.28125 11.476562 9.289062 11.46875 9.296875 11.464844 L 9.636719 11.269531 L 10.035156 11.042969 L 12.71875 9.492188 C 12.730469 9.484375 12.742188 9.480469 12.75 9.476562 C 12.753906 9.476562 12.757812 9.476562 12.757812 9.472656 C 12.765625 9.472656 12.769531 9.46875 12.777344 9.46875 C 12.78125 9.46875 12.78125 9.464844 12.789062 9.464844 C 12.789062 9.464844 12.792969 9.464844 12.796875 9.464844 C 12.800781 9.464844 12.804688 9.460938 12.808594 9.460938 L 12.835938 9.460938 C 12.84375 9.460938 12.847656 9.460938 12.855469 9.464844 L 12.859375 9.464844 C 12.863281 9.464844 12.871094 9.464844 12.875 9.46875 C 12.875 9.46875 12.875 9.46875 12.878906 9.472656 C 12.882812 9.472656 12.890625 9.476562 12.894531 9.476562 Z M 12.601562 9.3125 "/>
<path style=" stroke:none;fill-rule:nonzero;fill:rgb(100%,100%,100%);fill-opacity:1;" d="M 12.71875 9.5 C 12.851562 9.421875 12.960938 9.484375 12.960938 9.636719 C 12.960938 9.789062 12.851562 9.976562 12.71875 10.054688 L 10.164062 11.527344 L 10.167969 12.042969 C 10.167969 12.128906 10.101562 12.21875 10.035156 12.261719 C 10 12.28125 9.964844 12.285156 9.9375 12.265625 L 9.199219 11.765625 C 9.125 11.714844 9.183594 11.539062 9.296875 11.476562 L 9.636719 11.277344 L 10.035156 11.050781 Z M 12.71875 9.5 "/>
<path style=" stroke:none;fill-rule:nonzero;fill:rgb(67.45098%,77.254902%,91.764706%);fill-opacity:1;" d="M 11.894531 7.644531 C 11.890625 7.644531 11.890625 7.644531 11.886719 7.640625 C 11.886719 7.640625 11.882812 7.636719 11.878906 7.636719 C 11.878906 7.636719 11.875 7.636719 11.875 7.636719 L 11.847656 7.636719 C 11.84375 7.636719 11.839844 7.636719 11.835938 7.636719 C 11.832031 7.636719 11.832031 7.640625 11.828125 7.640625 C 11.828125 7.640625 11.828125 7.640625 11.824219 7.644531 C 11.820312 7.644531 11.820312 7.644531 11.820312 7.644531 C 11.8125 7.648438 11.804688 7.652344 11.800781 7.65625 C 11.792969 7.660156 11.785156 7.664062 11.773438 7.671875 L 11.769531 7.679688 C 11.761719 7.683594 11.757812 7.6875 11.75 7.691406 L 11.75 7.695312 C 11.746094 7.699219 11.738281 7.703125 11.738281 7.707031 L 11.726562 7.71875 C 11.722656 7.726562 11.71875 7.726562 11.714844 7.730469 C 11.714844 7.738281 11.710938 7.738281 11.710938 7.742188 C 11.707031 7.746094 11.703125 7.75 11.703125 7.753906 C 11.703125 7.753906 11.699219 7.761719 11.699219 7.761719 C 11.699219 7.765625 11.695312 7.769531 11.695312 7.773438 C 11.691406 7.773438 11.691406 7.777344 11.691406 7.78125 C 11.6875 7.785156 11.6875 7.789062 11.6875 7.789062 C 11.683594 7.796875 11.683594 7.796875 11.679688 7.800781 C 11.679688 7.808594 11.679688 7.808594 11.679688 7.8125 C 11.675781 7.820312 11.675781 7.824219 11.675781 7.828125 L 11.675781 7.84375 C 11.675781 7.851562 11.675781 7.859375 11.675781 7.867188 L 11.675781 8.378906 L 11.96875 8.546875 L 11.964844 8.035156 C 11.964844 8.027344 11.964844 8.015625 11.96875 8.007812 L 11.96875 8 C 11.96875 7.992188 11.972656 7.980469 11.972656 7.972656 C 11.980469 7.960938 11.980469 7.949219 11.984375 7.941406 C 11.992188 7.929688 11.996094 7.917969 12.003906 7.910156 C 12.007812 7.902344 12.015625 7.890625 12.019531 7.882812 L 12.023438 7.882812 C 12.03125 7.875 12.035156 7.867188 12.042969 7.859375 C 12.050781 7.855469 12.054688 7.847656 12.0625 7.84375 L 12.066406 7.835938 C 12.074219 7.832031 12.085938 7.824219 12.09375 7.820312 C 12.101562 7.816406 12.109375 7.8125 12.117188 7.808594 C 12.121094 7.808594 12.121094 7.808594 12.121094 7.808594 C 12.128906 7.804688 12.136719 7.800781 12.144531 7.800781 L 12.167969 7.800781 L 12.191406 7.808594 Z M 9.171875 10.378906 C 9.171875 10.363281 9.179688 10.34375 9.183594 10.328125 C 9.183594 10.328125 9.183594 10.328125 9.183594 10.324219 C 9.191406 10.304688 9.195312 10.285156 9.207031 10.269531 L 9.234375 10.210938 C 9.242188 10.191406 9.253906 10.175781 9.265625 10.15625 C 9.265625 10.15625 9.269531 10.15625 9.269531 10.152344 L 9.304688 10.109375 C 9.308594 10.109375 9.308594 10.105469 9.3125 10.101562 C 9.320312 10.09375 9.332031 10.082031 9.34375 10.074219 C 9.347656 10.070312 9.351562 10.0625 9.355469 10.0625 C 9.371094 10.050781 9.386719 10.039062 9.402344 10.03125 L 11.957031 8.558594 L 11.664062 8.386719 L 9.109375 9.863281 C 9.09375 9.871094 9.078125 9.882812 9.066406 9.894531 C 9.0625 9.898438 9.054688 9.898438 9.050781 9.90625 C 9.042969 9.910156 9.039062 9.917969 9.03125 9.921875 L 9.019531 9.933594 C 9.019531 9.933594 9.015625 9.9375 9.015625 9.941406 L 9.003906 9.953125 C 8.996094 9.957031 8.992188 9.96875 8.984375 9.976562 C 8.984375 9.976562 8.980469 9.980469 8.980469 9.984375 C 8.980469 9.988281 8.976562 9.988281 8.976562 9.988281 C 8.972656 9.992188 8.972656 9.992188 8.96875 10 L 8.957031 10.019531 C 8.949219 10.027344 8.945312 10.035156 8.945312 10.039062 L 8.945312 10.046875 C 8.941406 10.050781 8.9375 10.058594 8.933594 10.0625 C 8.929688 10.070312 8.925781 10.074219 8.925781 10.082031 C 8.921875 10.089844 8.917969 10.09375 8.914062 10.101562 C 8.914062 10.109375 8.910156 10.117188 8.90625 10.121094 C 8.902344 10.128906 8.902344 10.136719 8.898438 10.144531 C 8.898438 10.152344 8.898438 10.152344 8.894531 10.15625 C 8.894531 10.160156 8.894531 10.160156 8.890625 10.164062 C 8.890625 10.164062 8.890625 10.167969 8.890625 10.167969 L 8.882812 10.199219 C 8.878906 10.203125 8.878906 10.210938 8.878906 10.214844 C 8.878906 10.214844 8.878906 10.222656 8.878906 10.222656 C 8.878906 10.226562 8.878906 10.226562 8.875 10.230469 C 8.875 10.246094 8.875 10.261719 8.875 10.277344 C 8.875 10.351562 8.902344 10.40625 8.945312 10.433594 L 9.234375 10.601562 C 9.191406 10.574219 9.164062 10.519531 9.164062 10.445312 C 9.164062 10.425781 9.167969 10.410156 9.167969 10.390625 C 9.167969 10.386719 9.167969 10.382812 9.171875 10.378906 Z M 9.171875 10.378906 "/>
<path style=" stroke:none;fill-rule:nonzero;fill:rgb(100%,100%,100%);fill-opacity:1;" d="M 12.089844 7.824219 C 12.125 7.800781 12.160156 7.796875 12.1875 7.816406 L 12.925781 8.316406 C 13 8.367188 12.941406 8.546875 12.828125 8.609375 L 12.488281 8.804688 L 12.089844 9.03125 L 9.40625 10.582031 C 9.273438 10.660156 9.164062 10.597656 9.164062 10.445312 C 9.164062 10.292969 9.273438 10.105469 9.40625 10.027344 L 11.960938 8.550781 L 11.957031 8.042969 C 11.957031 7.953125 12.019531 7.859375 12.089844 7.824219 Z M 12.089844 7.824219 "/>
<path style=" stroke:none;fill-rule:nonzero;fill:rgb(77.647059%,52.54902%,12.54902%);fill-opacity:1;" d="M 14.171875 11.210938 C 14.171875 11.210938 14.167969 11.210938 14.164062 11.207031 C 14.152344 11.199219 14.140625 11.195312 14.128906 11.1875 C 14.125 11.1875 14.121094 11.1875 14.117188 11.183594 C 14.113281 11.183594 14.105469 11.175781 14.097656 11.175781 C 14.09375 11.171875 14.089844 11.171875 14.082031 11.171875 C 14.078125 11.167969 14.078125 11.167969 14.070312 11.164062 C 14.058594 11.160156 14.042969 11.15625 14.027344 11.152344 L 14.023438 11.152344 C 14.011719 11.148438 13.996094 11.144531 13.980469 11.140625 C 13.976562 11.140625 13.972656 11.136719 13.964844 11.136719 C 13.960938 11.136719 13.957031 11.136719 13.953125 11.136719 C 13.941406 11.132812 13.9375 11.132812 13.925781 11.128906 C 13.925781 11.128906 13.917969 11.128906 13.917969 11.128906 C 13.902344 11.125 13.886719 11.125 13.871094 11.125 L 13.785156 11.125 C 13.773438 11.125 13.765625 11.125 13.757812 11.125 C 13.75 11.125 13.746094 11.125 13.738281 11.128906 C 13.71875 11.128906 13.703125 11.132812 13.683594 11.136719 C 13.664062 11.136719 13.644531 11.140625 13.621094 11.148438 C 13.613281 11.148438 13.609375 11.148438 13.601562 11.152344 C 13.589844 11.152344 13.578125 11.15625 13.566406 11.160156 L 13.5625 11.160156 C 13.539062 11.167969 13.515625 11.175781 13.488281 11.183594 C 13.484375 11.1875 13.480469 11.1875 13.472656 11.1875 C 13.457031 11.195312 13.433594 11.203125 13.414062 11.210938 C 13.414062 11.210938 13.410156 11.214844 13.410156 11.214844 L 13.359375 11.234375 C 13.355469 11.234375 13.355469 11.238281 13.351562 11.238281 C 13.332031 11.246094 13.316406 11.253906 13.296875 11.265625 C 13.292969 11.265625 13.285156 11.269531 13.28125 11.273438 C 13.261719 11.285156 13.238281 11.292969 13.222656 11.304688 C 13.199219 11.316406 13.179688 11.332031 13.15625 11.347656 L 13.136719 11.359375 L 13.09375 11.386719 C 13.085938 11.394531 13.078125 11.398438 13.070312 11.40625 C 13.058594 11.414062 13.046875 11.421875 13.03125 11.433594 C 13.023438 11.441406 13.015625 11.445312 13.007812 11.453125 C 12.992188 11.460938 12.980469 11.472656 12.96875 11.480469 C 12.960938 11.488281 12.953125 11.492188 12.945312 11.5 C 12.929688 11.511719 12.914062 11.523438 12.898438 11.539062 C 12.894531 11.542969 12.886719 11.546875 12.882812 11.550781 C 12.863281 11.570312 12.84375 11.585938 12.824219 11.605469 L 12.8125 11.617188 C 12.800781 11.628906 12.789062 11.640625 12.773438 11.65625 L 12.769531 11.660156 C 12.746094 11.683594 12.722656 11.707031 12.699219 11.730469 C 12.699219 11.734375 12.699219 11.734375 12.699219 11.734375 L 12.636719 11.804688 L 12.628906 11.8125 C 12.621094 11.820312 12.613281 11.832031 12.605469 11.839844 C 12.59375 11.851562 12.589844 11.859375 12.578125 11.871094 C 12.570312 11.882812 12.558594 11.898438 12.546875 11.910156 C 12.542969 11.917969 12.53125 11.929688 12.523438 11.9375 C 12.523438 11.941406 12.523438 11.945312 12.519531 11.945312 C 12.519531 11.945312 12.515625 11.949219 12.511719 11.953125 C 12.488281 11.984375 12.464844 12.019531 12.4375 12.054688 C 12.4375 12.054688 12.433594 12.0625 12.429688 12.0625 C 12.429688 12.066406 12.429688 12.066406 12.429688 12.066406 C 12.40625 12.101562 12.382812 12.136719 12.359375 12.167969 C 12.359375 12.171875 12.355469 12.175781 12.355469 12.179688 C 12.351562 12.183594 12.347656 12.1875 12.34375 12.191406 C 12.324219 12.21875 12.308594 12.25 12.292969 12.277344 C 12.289062 12.28125 12.289062 12.285156 12.285156 12.289062 C 12.285156 12.292969 12.28125 12.292969 12.28125 12.296875 L 12.226562 12.394531 C 12.222656 12.394531 12.222656 12.398438 12.21875 12.402344 C 12.21875 12.40625 12.214844 12.414062 12.210938 12.417969 C 12.195312 12.441406 12.183594 12.472656 12.171875 12.496094 C 12.167969 12.5 12.167969 12.507812 12.160156 12.511719 C 12.160156 12.515625 12.160156 12.519531 12.15625 12.523438 C 12.140625 12.558594 12.125 12.589844 12.109375 12.625 C 12.109375 12.625 12.109375 12.628906 12.109375 12.628906 C 12.105469 12.632812 12.105469 12.636719 12.101562 12.640625 C 12.089844 12.671875 12.078125 12.703125 12.066406 12.734375 L 12.058594 12.746094 C 12.054688 12.753906 12.054688 12.757812 12.054688 12.757812 C 12.039062 12.796875 12.027344 12.835938 12.015625 12.871094 L 12.015625 12.875 C 12.007812 12.898438 11.996094 12.921875 11.992188 12.949219 L 11.984375 12.96875 C 11.980469 12.984375 11.972656 13 11.972656 13.011719 C 11.96875 13.015625 11.96875 13.023438 11.96875 13.027344 C 11.964844 13.039062 11.960938 13.050781 11.957031 13.0625 C 11.953125 13.078125 11.949219 13.09375 11.945312 13.109375 L 11.9375 13.144531 C 11.9375 13.152344 11.933594 13.160156 11.933594 13.167969 C 11.933594 13.171875 11.933594 13.179688 11.933594 13.183594 C 11.925781 13.199219 11.925781 13.21875 11.921875 13.234375 C 11.921875 13.246094 11.917969 13.257812 11.914062 13.273438 C 11.914062 13.292969 11.910156 13.308594 11.910156 13.328125 C 11.90625 13.335938 11.90625 13.34375 11.902344 13.351562 C 11.902344 13.355469 11.902344 13.359375 11.902344 13.363281 C 11.902344 13.375 11.898438 13.378906 11.898438 13.390625 C 11.898438 13.40625 11.894531 13.425781 11.894531 13.441406 C 11.894531 13.449219 11.890625 13.460938 11.890625 13.46875 C 11.890625 13.484375 11.890625 13.503906 11.890625 13.519531 L 11.890625 13.542969 C 11.890625 13.566406 11.886719 13.589844 11.886719 13.613281 C 11.890625 14.035156 12.039062 14.335938 12.277344 14.476562 L 12.507812 14.609375 C 12.265625 14.46875 12.121094 14.171875 12.117188 13.75 C 12.117188 13.726562 12.117188 13.699219 12.121094 13.675781 L 12.121094 13.652344 C 12.121094 13.636719 12.121094 13.617188 12.121094 13.601562 C 12.121094 13.589844 12.125 13.582031 12.125 13.574219 C 12.125 13.558594 12.125 13.539062 12.128906 13.523438 C 12.128906 13.515625 12.132812 13.507812 12.132812 13.496094 C 12.132812 13.484375 12.132812 13.472656 12.136719 13.460938 C 12.136719 13.445312 12.140625 13.425781 12.144531 13.410156 C 12.144531 13.398438 12.148438 13.386719 12.148438 13.371094 C 12.152344 13.355469 12.15625 13.335938 12.160156 13.320312 C 12.160156 13.304688 12.164062 13.292969 12.167969 13.277344 L 12.175781 13.242188 C 12.179688 13.226562 12.183594 13.210938 12.1875 13.195312 C 12.191406 13.183594 12.195312 13.171875 12.195312 13.160156 C 12.203125 13.140625 12.207031 13.121094 12.214844 13.105469 L 12.21875 13.082031 C 12.226562 13.058594 12.238281 13.03125 12.242188 13.007812 C 12.253906 12.96875 12.269531 12.933594 12.285156 12.894531 C 12.289062 12.886719 12.289062 12.875 12.296875 12.867188 C 12.308594 12.835938 12.320312 12.804688 12.332031 12.773438 L 12.339844 12.757812 C 12.355469 12.722656 12.371094 12.691406 12.386719 12.65625 C 12.390625 12.648438 12.394531 12.636719 12.402344 12.628906 C 12.414062 12.601562 12.425781 12.578125 12.441406 12.550781 C 12.445312 12.542969 12.449219 12.535156 12.453125 12.523438 L 12.511719 12.425781 C 12.515625 12.417969 12.519531 12.414062 12.523438 12.40625 C 12.539062 12.378906 12.558594 12.351562 12.574219 12.324219 C 12.578125 12.3125 12.582031 12.308594 12.589844 12.296875 C 12.613281 12.261719 12.636719 12.230469 12.660156 12.195312 C 12.664062 12.191406 12.664062 12.1875 12.671875 12.183594 C 12.695312 12.148438 12.71875 12.113281 12.746094 12.082031 C 12.75 12.078125 12.753906 12.074219 12.757812 12.066406 C 12.765625 12.058594 12.773438 12.046875 12.78125 12.039062 C 12.789062 12.027344 12.800781 12.011719 12.8125 12 C 12.820312 11.992188 12.828125 11.980469 12.835938 11.96875 C 12.847656 11.957031 12.855469 11.945312 12.867188 11.933594 L 12.929688 11.863281 L 12.933594 11.863281 C 12.957031 11.839844 12.976562 11.816406 13 11.792969 C 13.015625 11.777344 13.03125 11.761719 13.046875 11.75 L 13.058594 11.738281 C 13.074219 11.71875 13.097656 11.703125 13.117188 11.683594 C 13.121094 11.679688 13.128906 11.675781 13.132812 11.667969 C 13.144531 11.65625 13.160156 11.644531 13.175781 11.632812 C 13.183594 11.625 13.191406 11.621094 13.199219 11.613281 C 13.214844 11.605469 13.226562 11.59375 13.238281 11.582031 C 13.246094 11.574219 13.257812 11.570312 13.261719 11.5625 C 13.277344 11.554688 13.289062 11.546875 13.304688 11.535156 C 13.308594 11.53125 13.320312 11.523438 13.328125 11.519531 L 13.367188 11.492188 L 13.390625 11.476562 C 13.410156 11.464844 13.433594 11.453125 13.453125 11.4375 C 13.472656 11.425781 13.496094 11.414062 13.515625 11.40625 C 13.519531 11.402344 13.527344 11.398438 13.53125 11.394531 C 13.550781 11.386719 13.566406 11.375 13.585938 11.371094 C 13.585938 11.371094 13.589844 11.367188 13.589844 11.367188 C 13.609375 11.359375 13.628906 11.351562 13.648438 11.34375 C 13.667969 11.335938 13.6875 11.328125 13.707031 11.320312 C 13.710938 11.316406 13.714844 11.316406 13.71875 11.316406 C 13.742188 11.304688 13.769531 11.300781 13.792969 11.292969 C 13.808594 11.289062 13.820312 11.285156 13.835938 11.28125 C 13.84375 11.28125 13.847656 11.28125 13.855469 11.277344 C 13.875 11.273438 13.894531 11.269531 13.914062 11.265625 L 13.917969 11.265625 C 13.9375 11.265625 13.953125 11.261719 13.972656 11.257812 C 13.976562 11.257812 13.984375 11.257812 13.988281 11.257812 C 14.003906 11.257812 14.015625 11.253906 14.027344 11.253906 L 14.097656 11.253906 C 14.113281 11.253906 14.128906 11.257812 14.148438 11.257812 C 14.148438 11.257812 14.152344 11.257812 14.15625 11.261719 C 14.171875 11.265625 14.183594 11.265625 14.195312 11.269531 C 14.199219 11.269531 14.207031 11.269531 14.210938 11.269531 C 14.222656 11.273438 14.242188 11.277344 14.253906 11.28125 L 14.257812 11.28125 C 14.273438 11.289062 14.289062 11.292969 14.300781 11.296875 C 14.304688 11.300781 14.308594 11.300781 14.3125 11.300781 L 14.347656 11.316406 C 14.351562 11.316406 14.355469 11.316406 14.359375 11.320312 C 14.371094 11.328125 14.386719 11.335938 14.402344 11.34375 Z M 14.171875 11.210938 "/>
<path style=" stroke:none;fill-rule:nonzero;fill:rgb(100%,80.392157%,18.039216%);fill-opacity:1;" d="M 13.449219 11.441406 C 14.1875 11.011719 14.789062 11.355469 14.792969 12.207031 C 14.796875 13.058594 14.199219 14.09375 13.457031 14.519531 C 12.71875 14.945312 12.117188 14.605469 12.113281 13.753906 C 12.113281 12.902344 12.710938 11.867188 13.449219 11.441406 Z M 13.449219 11.441406 "/>
<path style=" stroke:none;fill-rule:nonzero;fill:rgb(77.647059%,52.54902%,12.54902%);fill-opacity:1;" d="M 13.605469 12.835938 C 13.621094 12.855469 13.625 12.886719 13.625 12.933594 C 13.625 12.984375 13.613281 13.039062 13.589844 13.09375 C 13.566406 13.144531 13.535156 13.199219 13.492188 13.246094 C 13.457031 13.28125 13.421875 13.316406 13.378906 13.34375 L 13.378906 13.4375 C 13.378906 13.46875 13.355469 13.507812 13.328125 13.527344 C 13.300781 13.542969 13.277344 13.527344 13.277344 13.496094 L 13.277344 13.402344 C 13.226562 13.425781 13.1875 13.4375 13.148438 13.433594 C 13.113281 13.429688 13.085938 13.414062 13.066406 13.386719 C 13.046875 13.363281 13.035156 13.332031 13.035156 13.292969 C 13.035156 13.273438 13.039062 13.25 13.050781 13.226562 C 13.0625 13.207031 13.082031 13.1875 13.101562 13.179688 C 13.117188 13.167969 13.132812 13.167969 13.140625 13.171875 C 13.152344 13.175781 13.164062 13.1875 13.167969 13.207031 C 13.179688 13.226562 13.1875 13.246094 13.199219 13.257812 C 13.210938 13.269531 13.226562 13.277344 13.246094 13.277344 C 13.257812 13.277344 13.265625 13.273438 13.273438 13.273438 L 13.273438 13.007812 C 13.234375 13.019531 13.195312 13.027344 13.164062 13.027344 C 13.128906 13.03125 13.097656 13.023438 13.078125 13 C 13.058594 12.976562 13.046875 12.941406 13.046875 12.894531 C 13.046875 12.847656 13.058594 12.796875 13.078125 12.746094 C 13.097656 12.699219 13.132812 12.652344 13.175781 12.605469 C 13.203125 12.578125 13.234375 12.550781 13.269531 12.523438 L 13.269531 12.417969 C 13.269531 12.386719 13.292969 12.347656 13.320312 12.332031 C 13.351562 12.3125 13.375 12.328125 13.375 12.359375 L 13.375 12.464844 C 13.398438 12.453125 13.421875 12.445312 13.441406 12.441406 C 13.472656 12.433594 13.503906 12.4375 13.523438 12.445312 C 13.542969 12.453125 13.5625 12.464844 13.574219 12.484375 C 13.582031 12.503906 13.589844 12.523438 13.589844 12.546875 C 13.589844 12.566406 13.582031 12.589844 13.570312 12.613281 C 13.558594 12.636719 13.542969 12.652344 13.523438 12.664062 C 13.507812 12.671875 13.492188 12.675781 13.484375 12.671875 C 13.472656 12.664062 13.464844 12.652344 13.457031 12.636719 C 13.441406 12.613281 13.425781 12.597656 13.40625 12.589844 C 13.398438 12.589844 13.386719 12.589844 13.375 12.589844 L 13.375 12.808594 C 13.40625 12.800781 13.433594 12.792969 13.460938 12.789062 C 13.496094 12.78125 13.523438 12.78125 13.546875 12.789062 C 13.574219 12.796875 13.589844 12.8125 13.605469 12.835938 Z M 13.4375 13.152344 C 13.464844 13.109375 13.480469 13.074219 13.480469 13.035156 C 13.480469 13.007812 13.472656 12.988281 13.457031 12.980469 C 13.441406 12.96875 13.421875 12.96875 13.398438 12.972656 C 13.390625 12.972656 13.386719 12.976562 13.378906 12.976562 L 13.378906 13.210938 C 13.402344 13.191406 13.421875 13.175781 13.4375 13.152344 M 13.273438 12.839844 L 13.273438 12.648438 C 13.253906 12.664062 13.238281 12.683594 13.222656 12.703125 C 13.199219 12.734375 13.1875 12.765625 13.1875 12.792969 C 13.1875 12.8125 13.191406 12.824219 13.199219 12.832031 C 13.210938 12.839844 13.21875 12.84375 13.234375 12.84375 C 13.246094 12.847656 13.261719 12.84375 13.273438 12.839844 "/>
<path style=" stroke:none;fill-rule:nonzero;fill:rgb(90.980392%,81.176471%,67.45098%);fill-opacity:1;" d="M 13.582031 13.679688 L 13.582031 13.585938 L 13.328125 13.4375 L 13.328125 13.53125 C 13.328125 13.546875 13.332031 13.558594 13.34375 13.5625 L 13.597656 13.710938 C 13.589844 13.707031 13.582031 13.695312 13.582031 13.679688 Z M 13.78125 13.238281 C 13.78125 13.230469 13.785156 13.226562 13.785156 13.21875 C 13.785156 13.199219 13.777344 13.179688 13.773438 13.171875 L 13.761719 13.164062 L 13.507812 13.015625 C 13.523438 13.023438 13.53125 13.042969 13.53125 13.070312 C 13.53125 13.082031 13.53125 13.085938 13.53125 13.097656 C 13.527344 13.109375 13.527344 13.117188 13.523438 13.125 C 13.519531 13.132812 13.515625 13.144531 13.511719 13.152344 C 13.507812 13.164062 13.5 13.171875 13.492188 13.183594 C 13.484375 13.195312 13.476562 13.203125 13.46875 13.214844 C 13.46875 13.214844 13.46875 13.21875 13.464844 13.21875 C 13.457031 13.226562 13.445312 13.238281 13.4375 13.246094 L 13.691406 13.390625 C 13.695312 13.386719 13.703125 13.378906 13.710938 13.375 L 13.722656 13.363281 L 13.726562 13.355469 C 13.730469 13.351562 13.734375 13.347656 13.738281 13.34375 C 13.742188 13.339844 13.742188 13.335938 13.75 13.332031 C 13.75 13.328125 13.753906 13.324219 13.753906 13.320312 C 13.757812 13.320312 13.761719 13.316406 13.761719 13.3125 C 13.765625 13.308594 13.765625 13.304688 13.765625 13.304688 C 13.769531 13.300781 13.769531 13.296875 13.773438 13.292969 C 13.773438 13.292969 13.773438 13.289062 13.777344 13.285156 C 13.777344 13.28125 13.777344 13.28125 13.777344 13.273438 C 13.777344 13.269531 13.777344 13.269531 13.78125 13.269531 C 13.78125 13.265625 13.785156 13.261719 13.785156 13.257812 C 13.785156 13.257812 13.785156 13.25 13.785156 13.25 L 13.785156 13.246094 C 13.78125 13.242188 13.78125 13.238281 13.78125 13.238281 Z M 13.78125 13.238281 "/>
<path style=" stroke:none;fill-rule:nonzero;fill:rgb(90.980392%,81.176471%,67.45098%);fill-opacity:1;" d="M 13.519531 13.449219 L 13.265625 13.304688 L 13.519531 13.449219 M 13.519531 13.449219 L 13.269531 13.304688 C 13.269531 13.304688 13.273438 13.304688 13.273438 13.304688 L 13.527344 13.453125 C 13.523438 13.453125 13.519531 13.449219 13.519531 13.449219 "/>
<path style=" stroke:none;fill-rule:nonzero;fill:rgb(90.980392%,81.176471%,67.45098%);fill-opacity:1;" d="M 13.527344 13.453125 L 13.273438 13.304688 C 13.273438 13.304688 13.277344 13.308594 13.28125 13.308594 L 13.53125 13.457031 C 13.53125 13.457031 13.527344 13.453125 13.527344 13.453125 "/>
<path style=" stroke:none;fill-rule:nonzero;fill:rgb(90.980392%,81.176471%,67.45098%);fill-opacity:1;" d="M 13.53125 13.457031 L 13.28125 13.308594 C 13.28125 13.308594 13.285156 13.308594 13.285156 13.308594 L 13.539062 13.457031 C 13.539062 13.457031 13.535156 13.457031 13.53125 13.457031 M 13.539062 13.457031 L 13.285156 13.308594 L 13.296875 13.308594 L 13.550781 13.457031 L 13.539062 13.457031 M 13.550781 13.457031 L 13.296875 13.308594 L 13.304688 13.308594 L 13.554688 13.457031 L 13.550781 13.457031 "/>
<path style=" stroke:none;fill-rule:nonzero;fill:rgb(90.980392%,81.176471%,67.45098%);fill-opacity:1;" d="M 13.554688 13.457031 L 13.304688 13.308594 L 13.308594 13.308594 L 13.5625 13.457031 L 13.554688 13.457031 M 13.566406 13.457031 L 13.3125 13.308594 C 13.316406 13.308594 13.320312 13.308594 13.328125 13.308594 L 13.578125 13.457031 C 13.574219 13.457031 13.566406 13.457031 13.566406 13.457031 "/>
<path style=" stroke:none;fill-rule:nonzero;fill:rgb(90.980392%,81.176471%,67.45098%);fill-opacity:1;" d="M 13.578125 13.457031 L 13.324219 13.308594 C 13.328125 13.308594 13.328125 13.308594 13.328125 13.304688 L 13.582031 13.453125 C 13.582031 13.453125 13.578125 13.453125 13.578125 13.457031 "/>
<path style=" stroke:none;fill-rule:nonzero;fill:rgb(90.980392%,81.176471%,67.45098%);fill-opacity:1;" d="M 13.582031 13.453125 L 13.328125 13.308594 L 13.328125 13.039062 L 13.582031 13.1875 Z M 13.582031 13.453125 "/>
<path style=" stroke:none;fill-rule:nonzero;fill:rgb(90.980392%,81.176471%,67.45098%);fill-opacity:1;" d="M 13.683594 12.992188 L 13.429688 12.847656 C 13.433594 12.847656 13.4375 12.84375 13.4375 12.84375 L 13.691406 12.992188 C 13.691406 12.992188 13.6875 12.992188 13.683594 12.992188 M 13.691406 12.992188 L 13.4375 12.84375 C 13.46875 12.835938 13.492188 12.828125 13.515625 12.828125 C 13.515625 12.828125 13.519531 12.824219 13.523438 12.824219 L 13.777344 12.972656 C 13.773438 12.972656 13.769531 12.972656 13.765625 12.976562 C 13.746094 12.976562 13.71875 12.984375 13.691406 12.992188 M 13.777344 12.972656 L 13.527344 12.824219 C 13.535156 12.824219 13.542969 12.824219 13.554688 12.824219 L 13.808594 12.96875 C 13.796875 12.96875 13.789062 12.96875 13.777344 12.972656 "/>
<path style=" stroke:none;fill-rule:nonzero;fill:rgb(90.980392%,81.176471%,67.45098%);fill-opacity:1;" d="M 13.808594 12.96875 L 13.554688 12.824219 L 13.574219 12.824219 L 13.828125 12.96875 L 13.808594 12.96875 "/>
<path style=" stroke:none;fill-rule:nonzero;fill:rgb(90.980392%,81.176471%,67.45098%);fill-opacity:1;" d="M 13.828125 12.96875 L 13.574219 12.824219 C 13.582031 12.824219 13.585938 12.824219 13.59375 12.824219 L 13.847656 12.972656 C 13.84375 12.96875 13.835938 12.96875 13.828125 12.96875 "/>
<path style=" stroke:none;fill-rule:nonzero;fill:rgb(90.980392%,81.176471%,67.45098%);fill-opacity:1;" d="M 13.847656 12.972656 L 13.59375 12.824219 C 13.597656 12.824219 13.601562 12.824219 13.601562 12.828125 C 13.605469 12.828125 13.609375 12.828125 13.609375 12.828125 L 13.859375 12.976562 C 13.859375 12.976562 13.859375 12.976562 13.855469 12.976562 C 13.851562 12.972656 13.847656 12.972656 13.847656 12.972656 M 13.859375 12.976562 L 13.609375 12.828125 C 13.609375 12.828125 13.613281 12.828125 13.617188 12.828125 L 13.871094 12.976562 C 13.867188 12.976562 13.863281 12.976562 13.859375 12.976562 "/>
<path style=" stroke:none;fill-rule:nonzero;fill:rgb(90.980392%,81.176471%,67.45098%);fill-opacity:1;" d="M 13.871094 12.980469 L 13.617188 12.832031 C 13.621094 12.835938 13.625 12.835938 13.625 12.835938 L 13.878906 12.984375 C 13.875 12.980469 13.871094 12.980469 13.871094 12.980469 M 13.878906 12.980469 L 13.625 12.835938 L 13.878906 12.980469 C 13.878906 12.984375 13.878906 12.980469 13.878906 12.980469 "/>
<path style=" stroke:none;fill-rule:nonzero;fill:rgb(90.980392%,81.176471%,67.45098%);fill-opacity:1;" d="M 13.449219 13.355469 L 13.195312 13.207031 L 13.167969 13.207031 C 13.167969 13.207031 13.167969 13.207031 13.164062 13.210938 C 13.160156 13.210938 13.15625 13.210938 13.152344 13.214844 C 13.144531 13.21875 13.136719 13.226562 13.128906 13.234375 L 13.121094 13.238281 C 13.121094 13.242188 13.121094 13.246094 13.117188 13.246094 C 13.117188 13.25 13.117188 13.25 13.113281 13.25 C 13.109375 13.253906 13.109375 13.257812 13.109375 13.257812 C 13.109375 13.257812 13.105469 13.261719 13.105469 13.261719 C 13.105469 13.265625 13.105469 13.265625 13.105469 13.269531 C 13.105469 13.269531 13.101562 13.273438 13.101562 13.273438 C 13.101562 13.277344 13.097656 13.28125 13.097656 13.28125 C 13.097656 13.28125 13.097656 13.285156 13.097656 13.285156 C 13.097656 13.285156 13.09375 13.289062 13.09375 13.292969 C 13.09375 13.292969 13.09375 13.292969 13.09375 13.296875 C 13.09375 13.300781 13.089844 13.304688 13.089844 13.304688 C 13.089844 13.308594 13.085938 13.3125 13.085938 13.316406 L 13.085938 13.328125 C 13.085938 13.363281 13.097656 13.398438 13.121094 13.421875 C 13.128906 13.433594 13.140625 13.445312 13.152344 13.449219 L 13.40625 13.597656 C 13.394531 13.589844 13.382812 13.582031 13.375 13.570312 C 13.351562 13.542969 13.339844 13.515625 13.339844 13.476562 C 13.339844 13.46875 13.34375 13.457031 13.34375 13.445312 C 13.347656 13.433594 13.351562 13.421875 13.359375 13.410156 C 13.367188 13.398438 13.375 13.390625 13.378906 13.382812 C 13.386719 13.375 13.398438 13.367188 13.40625 13.363281 C 13.410156 13.359375 13.414062 13.355469 13.417969 13.355469 L 13.421875 13.355469 C 13.421875 13.355469 13.425781 13.355469 13.429688 13.355469 L 13.4375 13.355469 C 13.441406 13.351562 13.445312 13.351562 13.449219 13.355469 Z M 13.761719 12.824219 C 13.75 12.800781 13.738281 12.789062 13.722656 12.78125 L 13.46875 12.632812 C 13.484375 12.640625 13.496094 12.65625 13.507812 12.675781 C 13.519531 12.691406 13.527344 12.699219 13.539062 12.707031 L 13.789062 12.851562 C 13.78125 12.847656 13.773438 12.835938 13.761719 12.824219 Z M 13.566406 13.023438 C 13.574219 13.023438 13.574219 13.023438 13.578125 13.023438 L 13.578125 12.828125 L 13.328125 12.683594 L 13.328125 12.875 C 13.320312 12.875 13.316406 12.875 13.308594 12.875 L 13.285156 12.875 C 13.28125 12.875 13.273438 12.875 13.269531 12.875 C 13.265625 12.875 13.261719 12.871094 13.257812 12.871094 L 13.511719 13.015625 C 13.515625 13.015625 13.515625 13.019531 13.515625 13.019531 C 13.519531 13.019531 13.519531 13.023438 13.519531 13.023438 L 13.558594 13.023438 C 13.566406 13.023438 13.566406 13.023438 13.566406 13.023438 Z M 13.566406 13.023438 "/>
<path style=" stroke:none;fill-rule:nonzero;fill:rgb(90.980392%,81.176471%,67.45098%);fill-opacity:1;" d="M 13.683594 12.648438 L 13.429688 12.5 C 13.433594 12.496094 13.4375 12.496094 13.445312 12.496094 L 13.695312 12.640625 C 13.691406 12.640625 13.6875 12.644531 13.683594 12.648438 M 13.695312 12.640625 L 13.441406 12.492188 C 13.457031 12.484375 13.46875 12.480469 13.480469 12.476562 L 13.734375 12.625 C 13.722656 12.628906 13.710938 12.636719 13.695312 12.640625 M 13.738281 12.625 L 13.484375 12.476562 C 13.488281 12.476562 13.492188 12.476562 13.496094 12.476562 L 13.503906 12.476562 L 13.757812 12.625 L 13.75 12.625 C 13.746094 12.625 13.742188 12.625 13.738281 12.625 M 13.757812 12.621094 L 13.503906 12.472656 C 13.511719 12.472656 13.519531 12.472656 13.527344 12.472656 L 13.78125 12.617188 C 13.773438 12.617188 13.765625 12.621094 13.757812 12.621094 M 13.78125 12.617188 L 13.527344 12.472656 L 13.546875 12.472656 L 13.800781 12.617188 L 13.78125 12.617188 "/>
<path style=" stroke:none;fill-rule:nonzero;fill:rgb(90.980392%,81.176471%,67.45098%);fill-opacity:1;" d="M 13.800781 12.617188 L 13.546875 12.472656 C 13.550781 12.472656 13.554688 12.472656 13.5625 12.472656 L 13.8125 12.621094 C 13.808594 12.621094 13.804688 12.617188 13.800781 12.617188 "/>
<path style=" stroke:none;fill-rule:nonzero;fill:rgb(90.980392%,81.176471%,67.45098%);fill-opacity:1;" d="M 13.8125 12.621094 L 13.5625 12.472656 C 13.566406 12.472656 13.570312 12.476562 13.574219 12.476562 L 13.824219 12.625 C 13.820312 12.625 13.820312 12.621094 13.8125 12.621094 "/>
<path style=" stroke:none;fill-rule:nonzero;fill:rgb(90.980392%,81.176471%,67.45098%);fill-opacity:1;" d="M 13.824219 12.625 L 13.574219 12.476562 C 13.574219 12.476562 13.578125 12.476562 13.582031 12.476562 L 13.585938 12.476562 L 13.835938 12.625 C 13.832031 12.625 13.828125 12.625 13.824219 12.625 "/>
<path style=" stroke:none;fill-rule:nonzero;fill:rgb(90.980392%,81.176471%,67.45098%);fill-opacity:1;" d="M 13.835938 12.628906 L 13.582031 12.480469 C 13.585938 12.484375 13.589844 12.484375 13.59375 12.488281 L 13.847656 12.636719 C 13.84375 12.628906 13.839844 12.628906 13.835938 12.628906 M 13.847656 12.632812 L 13.597656 12.484375 L 13.847656 12.632812 "/>
<path style=" stroke:none;fill-rule:nonzero;fill:rgb(90.980392%,81.176471%,67.45098%);fill-opacity:1;" d="M 13.402344 13.191406 L 13.152344 13.046875 C 13.144531 13.039062 13.136719 13.035156 13.132812 13.027344 C 13.109375 13.007812 13.097656 12.972656 13.097656 12.921875 C 13.097656 12.910156 13.097656 12.898438 13.101562 12.882812 L 13.355469 13.03125 C 13.351562 13.046875 13.351562 13.058594 13.351562 13.070312 C 13.351562 13.121094 13.363281 13.15625 13.386719 13.175781 C 13.390625 13.183594 13.398438 13.1875 13.402344 13.191406 "/>
<path style=" stroke:none;fill-rule:nonzero;fill:rgb(90.980392%,81.176471%,67.45098%);fill-opacity:1;" d="M 13.355469 13.03125 L 13.101562 12.882812 C 13.101562 12.875 13.105469 12.863281 13.105469 12.859375 L 13.359375 13.003906 C 13.359375 13.015625 13.355469 13.023438 13.355469 13.03125 "/>
<path style=" stroke:none;fill-rule:nonzero;fill:rgb(90.980392%,81.176471%,67.45098%);fill-opacity:1;" d="M 13.359375 13.003906 L 13.105469 12.859375 C 13.109375 12.851562 13.109375 12.84375 13.109375 12.835938 L 13.363281 12.984375 C 13.363281 12.992188 13.363281 13 13.359375 13.003906 M 13.367188 12.984375 L 13.113281 12.835938 C 13.117188 12.828125 13.117188 12.824219 13.117188 12.816406 L 13.371094 12.964844 C 13.367188 12.972656 13.367188 12.980469 13.367188 12.984375 "/>
<path style=" stroke:none;fill-rule:nonzero;fill:rgb(90.980392%,81.176471%,67.45098%);fill-opacity:1;" d="M 13.371094 12.964844 L 13.117188 12.816406 C 13.121094 12.8125 13.121094 12.804688 13.125 12.800781 L 13.378906 12.949219 C 13.375 12.957031 13.375 12.960938 13.371094 12.964844 "/>
<path style=" stroke:none;fill-rule:nonzero;fill:rgb(90.980392%,81.176471%,67.45098%);fill-opacity:1;" d="M 13.378906 12.949219 L 13.125 12.800781 C 13.128906 12.796875 13.128906 12.789062 13.132812 12.785156 L 13.386719 12.933594 C 13.382812 12.9375 13.378906 12.945312 13.378906 12.949219 M 13.386719 12.933594 L 13.132812 12.785156 C 13.132812 12.78125 13.132812 12.78125 13.132812 12.78125 C 13.136719 12.777344 13.136719 12.773438 13.140625 12.769531 L 13.390625 12.917969 C 13.390625 12.921875 13.390625 12.925781 13.386719 12.929688 C 13.386719 12.929688 13.386719 12.929688 13.386719 12.933594 M 13.390625 12.917969 L 13.140625 12.769531 C 13.140625 12.765625 13.144531 12.757812 13.144531 12.753906 L 13.398438 12.898438 C 13.398438 12.90625 13.394531 12.910156 13.390625 12.917969 "/>
<path style=" stroke:none;fill-rule:nonzero;fill:rgb(90.980392%,81.176471%,67.45098%);fill-opacity:1;" d="M 13.398438 12.902344 L 13.144531 12.753906 C 13.148438 12.75 13.152344 12.746094 13.15625 12.738281 L 13.410156 12.886719 C 13.402344 12.890625 13.402344 12.898438 13.398438 12.902344 "/>
<path style=" stroke:none;fill-rule:nonzero;fill:rgb(90.980392%,81.176471%,67.45098%);fill-opacity:1;" d="M 13.410156 12.886719 L 13.15625 12.738281 C 13.15625 12.734375 13.164062 12.726562 13.164062 12.722656 L 13.417969 12.871094 C 13.414062 12.875 13.410156 12.882812 13.410156 12.886719 "/>
<path style=" stroke:none;fill-rule:nonzero;fill:rgb(90.980392%,81.176471%,67.45098%);fill-opacity:1;" d="M 13.417969 12.871094 L 13.164062 12.722656 C 13.167969 12.714844 13.171875 12.710938 13.175781 12.703125 L 13.429688 12.851562 C 13.425781 12.859375 13.421875 12.863281 13.417969 12.871094 "/>
<path style=" stroke:none;fill-rule:nonzero;fill:rgb(90.980392%,81.176471%,67.45098%);fill-opacity:1;" d="M 13.429688 12.851562 L 13.175781 12.707031 C 13.179688 12.699219 13.1875 12.691406 13.191406 12.6875 L 13.445312 12.835938 C 13.4375 12.839844 13.433594 12.847656 13.429688 12.851562 M 13.445312 12.832031 L 13.191406 12.683594 C 13.199219 12.675781 13.203125 12.667969 13.210938 12.660156 L 13.460938 12.808594 C 13.457031 12.816406 13.449219 12.824219 13.445312 12.832031 M 13.464844 12.808594 L 13.210938 12.660156 C 13.21875 12.652344 13.222656 12.648438 13.230469 12.640625 L 13.238281 12.628906 L 13.492188 12.777344 L 13.484375 12.789062 C 13.476562 12.792969 13.46875 12.800781 13.464844 12.808594 M 13.492188 12.777344 L 13.238281 12.628906 C 13.265625 12.605469 13.296875 12.582031 13.328125 12.558594 L 13.578125 12.707031 C 13.550781 12.726562 13.519531 12.753906 13.492188 12.777344 "/>
<path style=" stroke:none;fill-rule:nonzero;fill:rgb(90.980392%,81.176471%,67.45098%);fill-opacity:1;" d="M 13.648438 12.507812 L 13.660156 12.507812 C 13.660156 12.507812 13.664062 12.507812 13.667969 12.507812 L 13.414062 12.359375 C 13.414062 12.359375 13.410156 12.359375 13.410156 12.359375 L 13.386719 12.359375 C 13.386719 12.359375 13.382812 12.359375 13.378906 12.363281 C 13.375 12.367188 13.367188 12.371094 13.363281 12.378906 L 13.355469 12.386719 C 13.355469 12.390625 13.351562 12.390625 13.351562 12.390625 C 13.351562 12.394531 13.351562 12.394531 13.351562 12.394531 C 13.351562 12.398438 13.347656 12.398438 13.347656 12.402344 C 13.347656 12.402344 13.34375 12.402344 13.34375 12.40625 C 13.34375 12.40625 13.34375 12.40625 13.34375 12.410156 C 13.34375 12.414062 13.339844 12.414062 13.339844 12.414062 C 13.339844 12.417969 13.339844 12.417969 13.339844 12.417969 C 13.339844 12.421875 13.335938 12.421875 13.335938 12.425781 L 13.335938 12.429688 C 13.335938 12.429688 13.335938 12.433594 13.332031 12.4375 C 13.332031 12.4375 13.332031 12.441406 13.332031 12.441406 L 13.332031 12.558594 L 13.585938 12.707031 L 13.585938 12.601562 C 13.585938 12.59375 13.585938 12.582031 13.589844 12.574219 C 13.589844 12.566406 13.597656 12.558594 13.601562 12.546875 C 13.605469 12.542969 13.609375 12.535156 13.617188 12.527344 C 13.625 12.519531 13.628906 12.515625 13.636719 12.511719 C 13.636719 12.507812 13.644531 12.507812 13.644531 12.507812 Z M 13.648438 12.507812 "/>
<path style=" stroke:none;fill-rule:nonzero;fill:rgb(100%,100%,100%);fill-opacity:1;" d="M 13.914062 13.015625 C 13.925781 13.035156 13.933594 13.070312 13.933594 13.113281 C 13.933594 13.164062 13.921875 13.21875 13.898438 13.273438 C 13.875 13.328125 13.84375 13.378906 13.796875 13.425781 C 13.765625 13.460938 13.726562 13.496094 13.6875 13.523438 L 13.6875 13.617188 C 13.6875 13.648438 13.664062 13.691406 13.636719 13.707031 C 13.609375 13.722656 13.585938 13.707031 13.585938 13.679688 L 13.585938 13.585938 C 13.535156 13.609375 13.492188 13.617188 13.457031 13.613281 C 13.421875 13.609375 13.394531 13.59375 13.375 13.566406 C 13.351562 13.542969 13.339844 13.511719 13.339844 13.472656 C 13.339844 13.453125 13.347656 13.433594 13.359375 13.410156 C 13.371094 13.386719 13.386719 13.367188 13.410156 13.359375 C 13.425781 13.351562 13.4375 13.347656 13.449219 13.351562 C 13.460938 13.355469 13.46875 13.367188 13.476562 13.386719 C 13.484375 13.410156 13.496094 13.425781 13.507812 13.4375 C 13.519531 13.449219 13.53125 13.457031 13.554688 13.457031 C 13.5625 13.457031 13.574219 13.457031 13.582031 13.453125 L 13.582031 13.1875 C 13.539062 13.199219 13.503906 13.207031 13.472656 13.210938 C 13.4375 13.210938 13.40625 13.203125 13.386719 13.179688 C 13.363281 13.15625 13.351562 13.121094 13.351562 13.074219 C 13.351562 13.027344 13.363281 12.976562 13.386719 12.929688 C 13.40625 12.878906 13.4375 12.832031 13.480469 12.789062 C 13.507812 12.757812 13.542969 12.730469 13.578125 12.707031 L 13.578125 12.601562 C 13.578125 12.566406 13.601562 12.527344 13.628906 12.511719 C 13.65625 12.496094 13.679688 12.507812 13.679688 12.542969 L 13.679688 12.644531 C 13.707031 12.632812 13.730469 12.625 13.75 12.621094 C 13.78125 12.613281 13.808594 12.617188 13.832031 12.625 C 13.851562 12.636719 13.867188 12.648438 13.878906 12.664062 C 13.890625 12.683594 13.894531 12.703125 13.894531 12.726562 C 13.894531 12.746094 13.890625 12.769531 13.878906 12.792969 C 13.867188 12.816406 13.847656 12.835938 13.832031 12.84375 C 13.8125 12.851562 13.800781 12.855469 13.789062 12.851562 C 13.78125 12.847656 13.773438 12.835938 13.761719 12.816406 C 13.75 12.792969 13.730469 12.777344 13.714844 12.769531 C 13.703125 12.769531 13.695312 12.769531 13.683594 12.769531 L 13.683594 12.988281 C 13.714844 12.980469 13.742188 12.972656 13.765625 12.96875 C 13.800781 12.964844 13.832031 12.964844 13.855469 12.96875 C 13.878906 12.980469 13.898438 12.992188 13.914062 13.015625 Z M 13.742188 13.332031 C 13.769531 13.292969 13.785156 13.253906 13.785156 13.214844 C 13.785156 13.1875 13.777344 13.167969 13.761719 13.160156 C 13.746094 13.152344 13.726562 13.148438 13.703125 13.152344 C 13.695312 13.152344 13.691406 13.15625 13.683594 13.15625 L 13.683594 13.390625 C 13.707031 13.375 13.726562 13.355469 13.742188 13.332031 M 13.582031 13.023438 L 13.582031 12.828125 C 13.5625 12.847656 13.542969 12.863281 13.53125 12.882812 C 13.507812 12.917969 13.496094 12.945312 13.496094 12.976562 C 13.496094 12.992188 13.5 13.003906 13.507812 13.011719 C 13.515625 13.019531 13.527344 13.023438 13.539062 13.023438 C 13.550781 13.027344 13.566406 13.027344 13.582031 13.023438 "/>
<path style=" stroke:none;fill-rule:nonzero;fill:rgb(77.647059%,52.54902%,12.54902%);fill-opacity:1;" d="M 16.492188 11.210938 C 16.488281 11.210938 16.484375 11.210938 16.484375 11.207031 C 16.472656 11.199219 16.460938 11.195312 16.445312 11.1875 C 16.445312 11.1875 16.4375 11.1875 16.4375 11.183594 C 16.429688 11.183594 16.421875 11.175781 16.414062 11.175781 C 16.410156 11.171875 16.40625 11.171875 16.402344 11.171875 C 16.398438 11.167969 16.394531 11.167969 16.390625 11.164062 C 16.375 11.160156 16.359375 11.15625 16.34375 11.152344 C 16.328125 11.148438 16.3125 11.144531 16.296875 11.140625 C 16.292969 11.140625 16.289062 11.136719 16.285156 11.136719 C 16.28125 11.136719 16.273438 11.136719 16.269531 11.136719 C 16.261719 11.132812 16.253906 11.132812 16.246094 11.128906 C 16.242188 11.128906 16.238281 11.128906 16.234375 11.128906 C 16.222656 11.125 16.203125 11.125 16.191406 11.125 L 16.101562 11.125 C 16.09375 11.125 16.085938 11.125 16.074219 11.125 C 16.070312 11.125 16.0625 11.125 16.058594 11.128906 C 16.039062 11.128906 16.023438 11.132812 16.003906 11.136719 L 16 11.136719 C 15.980469 11.136719 15.960938 11.140625 15.941406 11.148438 C 15.933594 11.148438 15.925781 11.148438 15.921875 11.152344 C 15.910156 11.152344 15.894531 11.15625 15.882812 11.160156 L 15.878906 11.160156 C 15.855469 11.167969 15.832031 11.175781 15.804688 11.183594 C 15.800781 11.1875 15.796875 11.1875 15.792969 11.1875 C 15.773438 11.195312 15.753906 11.203125 15.734375 11.210938 C 15.730469 11.210938 15.730469 11.214844 15.726562 11.214844 L 15.675781 11.234375 C 15.675781 11.234375 15.671875 11.238281 15.671875 11.238281 C 15.652344 11.246094 15.632812 11.253906 15.617188 11.265625 C 15.613281 11.265625 15.605469 11.269531 15.601562 11.273438 C 15.578125 11.285156 15.558594 11.292969 15.539062 11.304688 C 15.519531 11.316406 15.496094 11.332031 15.476562 11.347656 L 15.453125 11.359375 L 15.414062 11.386719 C 15.40625 11.394531 15.394531 11.398438 15.390625 11.40625 C 15.375 11.414062 15.363281 11.421875 15.347656 11.433594 C 15.34375 11.441406 15.332031 11.445312 15.324219 11.453125 C 15.3125 11.460938 15.300781 11.472656 15.285156 11.480469 C 15.277344 11.488281 15.273438 11.492188 15.261719 11.5 C 15.25 11.511719 15.230469 11.523438 15.21875 11.539062 C 15.214844 11.542969 15.207031 11.546875 15.203125 11.550781 C 15.183594 11.570312 15.160156 11.585938 15.144531 11.605469 L 15.132812 11.617188 C 15.117188 11.628906 15.105469 11.640625 15.089844 11.65625 L 15.085938 11.660156 C 15.0625 11.683594 15.039062 11.707031 15.019531 11.730469 C 15.019531 11.734375 15.015625 11.734375 15.015625 11.734375 L 14.953125 11.804688 L 14.945312 11.8125 C 14.9375 11.820312 14.929688 11.832031 14.921875 11.839844 C 14.914062 11.851562 14.90625 11.859375 14.898438 11.871094 C 14.886719 11.882812 14.875 11.898438 14.867188 11.910156 C 14.859375 11.917969 14.851562 11.929688 14.84375 11.9375 C 14.839844 11.941406 14.839844 11.945312 14.839844 11.945312 C 14.835938 11.945312 14.832031 11.949219 14.832031 11.953125 C 14.804688 11.984375 14.78125 12.019531 14.757812 12.054688 C 14.753906 12.054688 14.75 12.0625 14.75 12.0625 C 14.75 12.066406 14.746094 12.066406 14.746094 12.066406 C 14.722656 12.101562 14.699219 12.136719 14.679688 12.167969 C 14.675781 12.171875 14.675781 12.175781 14.671875 12.179688 C 14.667969 12.183594 14.664062 12.1875 14.664062 12.191406 C 14.644531 12.21875 14.628906 12.25 14.609375 12.277344 C 14.609375 12.28125 14.605469 12.285156 14.601562 12.289062 C 14.601562 12.292969 14.597656 12.292969 14.597656 12.296875 L 14.542969 12.394531 C 14.539062 12.394531 14.539062 12.398438 14.539062 12.402344 C 14.535156 12.40625 14.535156 12.414062 14.527344 12.417969 C 14.515625 12.441406 14.5 12.472656 14.488281 12.496094 C 14.488281 12.5 14.484375 12.507812 14.480469 12.511719 C 14.476562 12.515625 14.476562 12.519531 14.476562 12.523438 C 14.457031 12.558594 14.441406 12.589844 14.429688 12.625 C 14.429688 12.625 14.429688 12.628906 14.425781 12.628906 C 14.421875 12.632812 14.421875 12.636719 14.421875 12.640625 C 14.40625 12.671875 14.394531 12.703125 14.382812 12.734375 L 14.375 12.746094 C 14.375 12.753906 14.375 12.757812 14.371094 12.757812 C 14.359375 12.796875 14.34375 12.835938 14.332031 12.871094 L 14.332031 12.875 C 14.324219 12.898438 14.316406 12.921875 14.308594 12.949219 L 14.300781 12.96875 C 14.296875 12.984375 14.292969 13 14.289062 13.011719 C 14.289062 13.015625 14.289062 13.023438 14.285156 13.027344 C 14.28125 13.039062 14.277344 13.050781 14.277344 13.0625 C 14.269531 13.078125 14.269531 13.09375 14.265625 13.109375 L 14.257812 13.144531 C 14.253906 13.152344 14.253906 13.160156 14.253906 13.167969 C 14.25 13.171875 14.25 13.179688 14.25 13.183594 C 14.246094 13.199219 14.242188 13.21875 14.242188 13.234375 C 14.238281 13.246094 14.234375 13.257812 14.234375 13.273438 C 14.230469 13.292969 14.230469 13.308594 14.226562 13.328125 C 14.222656 13.335938 14.222656 13.34375 14.222656 13.351562 C 14.222656 13.355469 14.222656 13.359375 14.21875 13.363281 C 14.21875 13.375 14.21875 13.378906 14.21875 13.390625 C 14.214844 13.40625 14.210938 13.425781 14.210938 13.441406 C 14.210938 13.449219 14.210938 13.460938 14.210938 13.46875 C 14.207031 13.484375 14.207031 13.503906 14.207031 13.519531 L 14.207031 13.542969 C 14.207031 13.566406 14.207031 13.589844 14.207031 13.613281 C 14.207031 14.035156 14.355469 14.335938 14.597656 14.476562 L 14.828125 14.609375 C 14.585938 14.46875 14.4375 14.171875 14.433594 13.75 C 14.433594 13.726562 14.433594 13.699219 14.4375 13.675781 L 14.4375 13.652344 C 14.4375 13.636719 14.441406 13.617188 14.441406 13.601562 C 14.441406 13.589844 14.441406 13.582031 14.441406 13.574219 C 14.445312 13.558594 14.445312 13.539062 14.445312 13.523438 C 14.445312 13.515625 14.449219 13.507812 14.449219 13.496094 C 14.453125 13.484375 14.453125 13.472656 14.453125 13.460938 C 14.457031 13.445312 14.457031 13.425781 14.460938 13.410156 C 14.464844 13.398438 14.464844 13.386719 14.46875 13.371094 C 14.46875 13.355469 14.476562 13.335938 14.476562 13.320312 C 14.480469 13.304688 14.480469 13.292969 14.488281 13.277344 L 14.492188 13.242188 C 14.5 13.226562 14.5 13.210938 14.503906 13.195312 C 14.507812 13.183594 14.511719 13.171875 14.515625 13.160156 C 14.519531 13.140625 14.523438 13.121094 14.53125 13.105469 L 14.539062 13.082031 C 14.546875 13.058594 14.554688 13.03125 14.5625 13.007812 C 14.574219 12.96875 14.585938 12.933594 14.601562 12.894531 C 14.605469 12.886719 14.609375 12.875 14.613281 12.867188 C 14.625 12.835938 14.640625 12.804688 14.652344 12.773438 L 14.65625 12.757812 C 14.671875 12.722656 14.6875 12.691406 14.703125 12.65625 C 14.710938 12.648438 14.714844 12.636719 14.71875 12.628906 C 14.734375 12.601562 14.746094 12.578125 14.757812 12.550781 C 14.761719 12.542969 14.769531 12.535156 14.773438 12.523438 L 14.828125 12.425781 C 14.832031 12.417969 14.835938 12.414062 14.839844 12.40625 C 14.855469 12.378906 14.875 12.351562 14.890625 12.324219 C 14.898438 12.3125 14.902344 12.308594 14.910156 12.296875 C 14.929688 12.261719 14.953125 12.230469 14.976562 12.195312 C 14.980469 12.191406 14.984375 12.1875 14.988281 12.183594 C 15.011719 12.148438 15.039062 12.113281 15.0625 12.082031 C 15.066406 12.078125 15.070312 12.074219 15.074219 12.066406 C 15.082031 12.058594 15.089844 12.046875 15.097656 12.039062 C 15.109375 12.027344 15.121094 12.011719 15.128906 12 C 15.136719 11.992188 15.144531 11.980469 15.15625 11.96875 C 15.164062 11.957031 15.171875 11.945312 15.183594 11.933594 L 15.25 11.863281 C 15.273438 11.839844 15.296875 11.816406 15.320312 11.792969 C 15.332031 11.777344 15.347656 11.761719 15.363281 11.75 L 15.375 11.738281 C 15.394531 11.71875 15.414062 11.703125 15.433594 11.683594 C 15.4375 11.679688 15.445312 11.675781 15.449219 11.667969 C 15.464844 11.65625 15.476562 11.644531 15.496094 11.632812 C 15.5 11.625 15.507812 11.621094 15.519531 11.613281 C 15.53125 11.605469 15.542969 11.59375 15.558594 11.582031 C 15.566406 11.574219 15.574219 11.570312 15.582031 11.5625 C 15.59375 11.554688 15.605469 11.546875 15.621094 11.535156 C 15.628906 11.53125 15.636719 11.523438 15.644531 11.519531 L 15.6875 11.492188 L 15.707031 11.476562 C 15.730469 11.464844 15.75 11.453125 15.769531 11.4375 C 15.792969 11.425781 15.8125 11.414062 15.832031 11.40625 C 15.835938 11.402344 15.84375 11.398438 15.847656 11.394531 C 15.867188 11.386719 15.886719 11.375 15.902344 11.371094 C 15.90625 11.371094 15.90625 11.367188 15.910156 11.367188 C 15.929688 11.359375 15.945312 11.351562 15.964844 11.34375 C 15.988281 11.335938 16.003906 11.328125 16.023438 11.320312 C 16.027344 11.316406 16.035156 11.316406 16.039062 11.316406 C 16.0625 11.304688 16.085938 11.300781 16.109375 11.292969 C 16.125 11.289062 16.140625 11.285156 16.152344 11.28125 C 16.160156 11.28125 16.167969 11.28125 16.171875 11.277344 C 16.191406 11.273438 16.210938 11.269531 16.234375 11.265625 C 16.253906 11.265625 16.273438 11.261719 16.289062 11.257812 C 16.296875 11.257812 16.300781 11.257812 16.308594 11.257812 C 16.320312 11.257812 16.332031 11.253906 16.34375 11.253906 L 16.414062 11.253906 C 16.433594 11.253906 16.449219 11.257812 16.464844 11.257812 C 16.46875 11.257812 16.472656 11.257812 16.472656 11.261719 C 16.488281 11.265625 16.5 11.265625 16.515625 11.269531 C 16.519531 11.269531 16.523438 11.269531 16.527344 11.269531 C 16.542969 11.273438 16.558594 11.277344 16.574219 11.28125 C 16.589844 11.289062 16.605469 11.292969 16.621094 11.296875 C 16.625 11.300781 16.625 11.300781 16.632812 11.300781 L 16.667969 11.316406 C 16.667969 11.316406 16.671875 11.316406 16.675781 11.320312 C 16.691406 11.328125 16.707031 11.335938 16.71875 11.34375 Z M 16.492188 11.210938 "/>
<path style=" stroke:none;fill-rule:nonzero;fill:rgb(100%,80.392157%,18.039216%);fill-opacity:1;" d="M 15.769531 11.441406 C 16.507812 11.011719 17.109375 11.355469 17.113281 12.207031 C 17.117188 13.058594 16.519531 14.09375 15.777344 14.519531 C 15.039062 14.945312 14.4375 14.605469 14.433594 13.753906 C 14.433594 12.902344 15.027344 11.867188 15.769531 11.441406 Z M 15.769531 11.441406 "/>
<path style=" stroke:none;fill-rule:nonzero;fill:rgb(77.647059%,52.54902%,12.54902%);fill-opacity:1;" d="M 15.90625 12.230469 C 15.925781 12.21875 15.949219 12.214844 15.964844 12.226562 C 16 12.242188 16 12.308594 15.964844 12.363281 L 15.765625 12.707031 L 15.953125 12.601562 C 16 12.574219 16.039062 12.597656 16.039062 12.652344 C 16.039062 12.707031 16 12.769531 15.953125 12.800781 L 15.734375 12.925781 L 15.734375 13.058594 L 15.953125 12.929688 C 16 12.902344 16.039062 12.925781 16.039062 12.980469 C 16.039062 13.035156 16.003906 13.097656 15.957031 13.128906 L 15.734375 13.253906 L 15.734375 13.425781 C 15.734375 13.480469 15.699219 13.546875 15.652344 13.574219 C 15.605469 13.601562 15.566406 13.578125 15.566406 13.527344 L 15.566406 13.351562 L 15.347656 13.480469 C 15.300781 13.507812 15.261719 13.484375 15.261719 13.429688 C 15.261719 13.375 15.296875 13.308594 15.34375 13.28125 L 15.566406 13.15625 L 15.566406 13.023438 L 15.34375 13.152344 C 15.296875 13.179688 15.261719 13.15625 15.257812 13.101562 C 15.257812 13.046875 15.296875 12.980469 15.34375 12.953125 L 15.527344 12.847656 L 15.328125 12.734375 C 15.296875 12.714844 15.296875 12.652344 15.328125 12.59375 C 15.34375 12.566406 15.367188 12.542969 15.390625 12.53125 C 15.410156 12.519531 15.433594 12.515625 15.449219 12.523438 L 15.648438 12.636719 L 15.847656 12.296875 C 15.863281 12.265625 15.882812 12.246094 15.90625 12.230469 Z M 15.90625 12.230469 "/>
<path style=" stroke:none;fill-rule:nonzero;fill:rgb(90.980392%,81.176471%,67.45098%);fill-opacity:1;" d="M 15.761719 13.679688 L 15.761719 13.503906 L 15.59375 13.40625 L 15.59375 13.578125 C 15.59375 13.609375 15.601562 13.625 15.617188 13.632812 L 15.789062 13.730469 C 15.769531 13.726562 15.761719 13.707031 15.761719 13.679688 Z M 16.167969 13.074219 C 16.175781 13.070312 16.179688 13.070312 16.183594 13.070312 L 16.199219 13.070312 C 16.203125 13.070312 16.210938 13.074219 16.210938 13.074219 L 16.042969 12.976562 C 16.039062 12.976562 16.039062 12.976562 16.039062 12.976562 C 16.035156 12.976562 16.035156 12.976562 16.035156 12.972656 L 16.015625 12.972656 C 16.011719 12.972656 16.011719 12.972656 16.007812 12.976562 L 16.003906 12.976562 C 16 12.976562 16 12.976562 16 12.976562 C 15.992188 12.980469 15.992188 12.980469 15.988281 12.984375 L 15.765625 13.109375 L 15.933594 13.210938 L 16.15625 13.082031 C 16.160156 13.082031 16.167969 13.078125 16.171875 13.074219 C 16.167969 13.074219 16.167969 13.074219 16.167969 13.074219 Z M 16.167969 12.746094 C 16.175781 12.746094 16.179688 12.746094 16.183594 12.746094 L 16.199219 12.746094 C 16.203125 12.746094 16.210938 12.746094 16.210938 12.75 L 16.042969 12.652344 C 16.039062 12.652344 16.039062 12.648438 16.039062 12.648438 C 16.035156 12.648438 16.035156 12.648438 16.035156 12.648438 L 16.015625 12.648438 C 16.011719 12.648438 16.011719 12.648438 16.007812 12.648438 L 16.003906 12.648438 C 16 12.648438 16 12.648438 16 12.652344 C 15.992188 12.652344 15.992188 12.65625 15.988281 12.660156 L 15.800781 12.765625 L 15.96875 12.863281 L 16.15625 12.757812 C 16.160156 12.753906 16.167969 12.753906 16.171875 12.75 C 16.167969 12.746094 16.167969 12.746094 16.167969 12.746094 Z M 15.761719 13.308594 L 15.59375 13.210938 L 15.59375 13.078125 L 15.761719 13.175781 Z M 15.761719 13.308594 "/>
<path style=" stroke:none;fill-rule:nonzero;fill:rgb(90.980392%,81.176471%,67.45098%);fill-opacity:1;" d="M 15.460938 13.558594 C 15.460938 13.550781 15.460938 13.546875 15.464844 13.539062 L 15.472656 13.515625 C 15.472656 13.507812 15.476562 13.503906 15.480469 13.496094 C 15.484375 13.488281 15.488281 13.484375 15.492188 13.476562 L 15.496094 13.472656 C 15.5 13.46875 15.5 13.464844 15.507812 13.460938 L 15.507812 13.457031 C 15.511719 13.453125 15.515625 13.449219 15.519531 13.449219 L 15.523438 13.445312 C 15.53125 13.4375 15.535156 13.4375 15.542969 13.433594 L 15.761719 13.304688 L 15.59375 13.207031 L 15.375 13.335938 C 15.371094 13.339844 15.363281 13.34375 15.359375 13.347656 L 15.339844 13.367188 C 15.335938 13.367188 15.335938 13.371094 15.332031 13.375 L 15.332031 13.378906 L 15.328125 13.378906 L 15.324219 13.382812 C 15.324219 13.386719 15.324219 13.386719 15.320312 13.390625 C 15.320312 13.390625 15.320312 13.394531 15.316406 13.398438 C 15.316406 13.398438 15.3125 13.402344 15.3125 13.402344 C 15.3125 13.40625 15.3125 13.410156 15.308594 13.410156 C 15.308594 13.414062 15.308594 13.414062 15.308594 13.417969 C 15.308594 13.421875 15.304688 13.421875 15.304688 13.425781 C 15.304688 13.425781 15.300781 13.429688 15.300781 13.433594 C 15.300781 13.433594 15.300781 13.433594 15.300781 13.4375 L 15.300781 13.441406 C 15.300781 13.445312 15.296875 13.449219 15.296875 13.449219 L 15.296875 13.480469 C 15.296875 13.503906 15.308594 13.527344 15.324219 13.53125 L 15.492188 13.632812 C 15.476562 13.621094 15.464844 13.601562 15.464844 13.578125 C 15.464844 13.570312 15.464844 13.5625 15.46875 13.558594 C 15.460938 13.5625 15.460938 13.5625 15.460938 13.558594 Z M 16.070312 12.414062 L 16.074219 12.410156 C 16.074219 12.40625 16.082031 12.402344 16.082031 12.402344 L 16.085938 12.394531 C 16.09375 12.390625 16.097656 12.390625 16.105469 12.382812 L 16.117188 12.378906 L 16.121094 12.378906 C 16.125 12.375 16.128906 12.375 16.132812 12.375 L 16.152344 12.375 C 16.15625 12.375 16.160156 12.378906 16.164062 12.378906 L 15.996094 12.28125 C 15.992188 12.28125 15.992188 12.277344 15.992188 12.277344 C 15.988281 12.277344 15.988281 12.277344 15.988281 12.277344 L 15.964844 12.277344 C 15.964844 12.277344 15.960938 12.277344 15.957031 12.277344 C 15.957031 12.277344 15.957031 12.277344 15.953125 12.28125 L 15.949219 12.28125 C 15.945312 12.285156 15.941406 12.285156 15.9375 12.289062 C 15.933594 12.289062 15.929688 12.296875 15.921875 12.300781 L 15.917969 12.304688 C 15.914062 12.308594 15.910156 12.308594 15.90625 12.3125 L 15.898438 12.320312 C 15.894531 12.324219 15.894531 12.324219 15.890625 12.332031 C 15.890625 12.332031 15.890625 12.332031 15.886719 12.332031 L 15.886719 12.335938 C 15.886719 12.335938 15.886719 12.335938 15.886719 12.339844 C 15.882812 12.34375 15.882812 12.34375 15.882812 12.347656 C 15.878906 12.347656 15.878906 12.351562 15.875 12.355469 L 15.675781 12.695312 L 15.847656 12.792969 L 16.046875 12.453125 C 16.050781 12.445312 16.054688 12.4375 16.058594 12.433594 L 16.058594 12.429688 C 16.0625 12.421875 16.066406 12.417969 16.070312 12.414062 Z M 16.070312 12.414062 "/>
<path style=" stroke:none;fill-rule:nonzero;fill:rgb(90.980392%,81.176471%,67.45098%);fill-opacity:1;" d="M 15.457031 13.234375 C 15.457031 13.226562 15.460938 13.222656 15.460938 13.214844 L 15.460938 13.210938 L 15.46875 13.191406 C 15.472656 13.183594 15.476562 13.175781 15.476562 13.167969 C 15.484375 13.164062 15.484375 13.15625 15.488281 13.152344 L 15.488281 13.148438 C 15.496094 13.144531 15.496094 13.140625 15.5 13.132812 L 15.503906 13.132812 C 15.507812 13.128906 15.511719 13.125 15.515625 13.121094 L 15.519531 13.117188 C 15.523438 13.113281 15.53125 13.109375 15.535156 13.105469 L 15.722656 13 L 15.554688 12.902344 L 15.367188 13.007812 C 15.363281 13.011719 15.355469 13.015625 15.351562 13.019531 L 15.335938 13.035156 C 15.335938 13.039062 15.332031 13.039062 15.332031 13.039062 C 15.332031 13.042969 15.328125 13.046875 15.324219 13.050781 L 15.320312 13.054688 L 15.320312 13.058594 C 15.316406 13.058594 15.316406 13.0625 15.3125 13.0625 C 15.3125 13.066406 15.3125 13.070312 15.308594 13.070312 C 15.308594 13.074219 15.308594 13.074219 15.308594 13.078125 C 15.304688 13.082031 15.304688 13.082031 15.300781 13.085938 C 15.300781 13.085938 15.300781 13.089844 15.300781 13.09375 C 15.300781 13.09375 15.296875 13.097656 15.296875 13.097656 C 15.296875 13.101562 15.296875 13.105469 15.296875 13.105469 C 15.296875 13.109375 15.296875 13.109375 15.292969 13.109375 L 15.292969 13.117188 C 15.292969 13.117188 15.289062 13.121094 15.289062 13.125 L 15.289062 13.152344 C 15.289062 13.179688 15.300781 13.199219 15.316406 13.207031 L 15.484375 13.304688 C 15.46875 13.296875 15.460938 13.277344 15.460938 13.25 C 15.460938 13.246094 15.460938 13.238281 15.460938 13.234375 C 15.457031 13.234375 15.457031 13.234375 15.457031 13.234375 Z M 15.457031 13.234375 "/>
<path style=" stroke:none;fill-rule:nonzero;fill:rgb(55.294118%,57.254902%,60.392157%);fill-opacity:1;" d="M 15.648438 12.679688 L 15.476562 12.582031 L 15.675781 12.695312 L 15.847656 12.792969 Z M 15.648438 12.679688 "/>
<path style=" stroke:none;fill-rule:nonzero;fill:rgb(100%,100%,100%);fill-opacity:1;" d="M 16.105469 12.382812 C 16.125 12.371094 16.148438 12.367188 16.164062 12.378906 C 16.199219 12.394531 16.199219 12.460938 16.164062 12.515625 L 15.964844 12.859375 L 16.152344 12.753906 C 16.199219 12.726562 16.238281 12.75 16.238281 12.804688 C 16.238281 12.859375 16.199219 12.921875 16.152344 12.953125 L 15.933594 13.078125 L 15.933594 13.210938 L 16.152344 13.082031 C 16.199219 13.054688 16.238281 13.078125 16.238281 13.132812 C 16.238281 13.1875 16.203125 13.25 16.15625 13.28125 L 15.933594 13.40625 L 15.933594 13.578125 C 15.933594 13.632812 15.898438 13.699219 15.851562 13.726562 C 15.804688 13.753906 15.765625 13.730469 15.765625 13.679688 L 15.765625 13.503906 L 15.546875 13.632812 C 15.5 13.660156 15.460938 13.636719 15.460938 13.582031 C 15.460938 13.527344 15.496094 13.460938 15.542969 13.433594 L 15.765625 13.308594 L 15.765625 13.175781 L 15.542969 13.304688 C 15.496094 13.332031 15.460938 13.308594 15.457031 13.253906 C 15.457031 13.199219 15.496094 13.132812 15.542969 13.105469 L 15.726562 13 L 15.527344 12.886719 C 15.496094 12.867188 15.496094 12.804688 15.527344 12.746094 C 15.542969 12.71875 15.566406 12.695312 15.589844 12.683594 C 15.609375 12.671875 15.632812 12.667969 15.648438 12.675781 L 15.847656 12.789062 L 16.046875 12.449219 C 16.058594 12.417969 16.082031 12.398438 16.105469 12.382812 Z M 16.105469 12.382812 "/>
<path style=" stroke:none;fill-rule:nonzero;fill:rgb(90.980392%,81.176471%,67.45098%);fill-opacity:1;" d="M 15.523438 12.886719 L 15.355469 12.789062 C 15.335938 12.777344 15.328125 12.75 15.332031 12.71875 L 15.5 12.816406 C 15.496094 12.847656 15.507812 12.875 15.523438 12.886719 "/>
<path style=" stroke:none;fill-rule:nonzero;fill:rgb(90.980392%,81.176471%,67.45098%);fill-opacity:1;" d="M 15.5 12.816406 L 15.332031 12.71875 C 15.332031 12.710938 15.335938 12.710938 15.335938 12.707031 L 15.503906 12.804688 C 15.5 12.808594 15.5 12.8125 15.5 12.816406 "/>
<path style=" stroke:none;fill-rule:nonzero;fill:rgb(90.980392%,81.176471%,67.45098%);fill-opacity:1;" d="M 15.503906 12.804688 L 15.335938 12.707031 C 15.335938 12.703125 15.335938 12.699219 15.335938 12.695312 L 15.507812 12.792969 C 15.503906 12.796875 15.503906 12.800781 15.503906 12.804688 "/>
<path style=" stroke:none;fill-rule:nonzero;fill:rgb(90.980392%,81.176471%,67.45098%);fill-opacity:1;" d="M 15.507812 12.792969 L 15.335938 12.695312 C 15.335938 12.695312 15.339844 12.691406 15.339844 12.6875 L 15.507812 12.785156 C 15.507812 12.789062 15.507812 12.792969 15.507812 12.792969 "/>
<path style=" stroke:none;fill-rule:nonzero;fill:rgb(90.980392%,81.176471%,67.45098%);fill-opacity:1;" d="M 15.507812 12.785156 L 15.339844 12.6875 C 15.339844 12.683594 15.34375 12.683594 15.34375 12.679688 L 15.511719 12.777344 C 15.511719 12.78125 15.507812 12.78125 15.507812 12.785156 "/>
<path style=" stroke:none;fill-rule:nonzero;fill:rgb(90.980392%,81.176471%,67.45098%);fill-opacity:1;" d="M 15.511719 12.777344 L 15.34375 12.679688 C 15.34375 12.675781 15.34375 12.675781 15.34375 12.671875 L 15.511719 12.769531 C 15.511719 12.773438 15.511719 12.777344 15.511719 12.777344 M 15.515625 12.769531 L 15.347656 12.671875 C 15.347656 12.667969 15.347656 12.664062 15.347656 12.664062 L 15.519531 12.761719 C 15.515625 12.765625 15.515625 12.765625 15.515625 12.769531 M 15.519531 12.761719 L 15.347656 12.664062 C 15.351562 12.660156 15.351562 12.660156 15.355469 12.65625 L 15.523438 12.753906 C 15.519531 12.757812 15.519531 12.757812 15.519531 12.761719 "/>
<path style=" stroke:none;fill-rule:nonzero;fill:rgb(90.980392%,81.176471%,67.45098%);fill-opacity:1;" d="M 15.523438 12.753906 L 15.355469 12.65625 C 15.355469 12.652344 15.355469 12.652344 15.359375 12.648438 L 15.527344 12.746094 C 15.523438 12.75 15.523438 12.753906 15.523438 12.753906 "/>
<path style=" stroke:none;fill-rule:nonzero;fill:rgb(90.980392%,81.176471%,67.45098%);fill-opacity:1;" d="M 15.523438 12.746094 L 15.355469 12.648438 C 15.359375 12.648438 15.359375 12.644531 15.359375 12.640625 L 15.53125 12.742188 C 15.53125 12.742188 15.527344 12.746094 15.523438 12.746094 "/>
<path style=" stroke:none;fill-rule:nonzero;fill:rgb(90.980392%,81.176471%,67.45098%);fill-opacity:1;" d="M 15.53125 12.742188 L 15.359375 12.640625 C 15.363281 12.640625 15.363281 12.636719 15.367188 12.636719 L 15.535156 12.734375 C 15.535156 12.734375 15.53125 12.738281 15.53125 12.742188 M 15.535156 12.734375 L 15.367188 12.636719 C 15.367188 12.632812 15.371094 12.628906 15.371094 12.628906 L 15.539062 12.726562 C 15.539062 12.730469 15.535156 12.730469 15.535156 12.734375 M 15.542969 12.726562 L 15.371094 12.628906 C 15.375 12.625 15.378906 12.625 15.378906 12.617188 L 15.546875 12.71875 C 15.546875 12.71875 15.542969 12.722656 15.542969 12.726562 M 15.546875 12.71875 L 15.378906 12.617188 L 15.390625 12.609375 L 15.558594 12.707031 C 15.554688 12.710938 15.550781 12.710938 15.546875 12.71875 "/>
<path style=" stroke:none;fill-rule:nonzero;fill:rgb(90.980392%,81.176471%,67.45098%);fill-opacity:1;" d="M 15.558594 12.707031 L 15.390625 12.609375 C 15.398438 12.601562 15.40625 12.59375 15.417969 12.585938 C 15.421875 12.582031 15.425781 12.582031 15.429688 12.578125 L 15.597656 12.675781 C 15.59375 12.679688 15.589844 12.683594 15.585938 12.683594 C 15.578125 12.691406 15.566406 12.699219 15.558594 12.707031 "/>
<path style=" stroke:none;fill-rule:nonzero;fill:rgb(90.980392%,81.176471%,67.45098%);fill-opacity:1;" d="M 15.597656 12.679688 L 15.429688 12.582031 C 15.429688 12.578125 15.4375 12.578125 15.4375 12.578125 L 15.605469 12.675781 C 15.605469 12.675781 15.601562 12.675781 15.597656 12.679688 M 15.605469 12.675781 L 15.4375 12.578125 C 15.441406 12.578125 15.441406 12.574219 15.445312 12.574219 L 15.613281 12.671875 C 15.613281 12.675781 15.609375 12.675781 15.605469 12.675781 "/>
<path style=" stroke:none;fill-rule:nonzero;fill:rgb(90.980392%,81.176471%,67.45098%);fill-opacity:1;" d="M 15.613281 12.675781 L 15.445312 12.578125 L 15.453125 12.578125 L 15.621094 12.675781 C 15.617188 12.671875 15.617188 12.671875 15.613281 12.675781 M 15.621094 12.671875 L 15.453125 12.574219 L 15.457031 12.574219 L 15.625 12.671875 L 15.621094 12.671875 M 15.628906 12.671875 L 15.460938 12.574219 L 15.464844 12.574219 L 15.632812 12.671875 L 15.628906 12.671875 "/>
<path style=" stroke:none;fill-rule:nonzero;fill:rgb(90.980392%,81.176471%,67.45098%);fill-opacity:1;" d="M 15.632812 12.675781 L 15.464844 12.578125 L 15.46875 12.578125 L 15.636719 12.675781 L 15.632812 12.675781 "/>
<path style=" stroke:none;fill-rule:nonzero;fill:rgb(90.980392%,81.176471%,67.45098%);fill-opacity:1;" d="M 15.636719 12.675781 L 15.46875 12.578125 C 15.472656 12.578125 15.472656 12.578125 15.472656 12.578125 L 15.640625 12.675781 C 15.640625 12.675781 15.636719 12.675781 15.636719 12.675781 "/>
<path style=" stroke:none;fill-rule:nonzero;fill:rgb(90.980392%,81.176471%,67.45098%);fill-opacity:1;" d="M 15.640625 12.675781 L 15.472656 12.578125 C 15.476562 12.578125 15.476562 12.582031 15.476562 12.582031 L 15.648438 12.679688 C 15.644531 12.675781 15.640625 12.675781 15.640625 12.675781 "/>
<path style=" stroke:none;fill-rule:nonzero;fill:rgb(90.980392%,81.176471%,67.45098%);fill-opacity:1;" d="M 15.644531 12.679688 L 15.476562 12.582031 L 15.644531 12.679688 C 15.648438 12.679688 15.648438 12.679688 15.644531 12.679688 "/>
</g>
</svg>
