<?xml version="1.0" encoding="UTF-8"?>
<svg xmlns="http://www.w3.org/2000/svg" xmlns:xlink="http://www.w3.org/1999/xlink" width="24px" height="24px" viewBox="0 0 24 24" version="1.1">
<g id="surface1">
<path style=" stroke:none;fill-rule:nonzero;fill:rgb(25.882353%,54.509804%,75.686275%);fill-opacity:1;" d="M 0.710938 12 C 0.710938 16.914062 3.863281 21.074219 8.210938 22.613281 L 8.210938 1.386719 C 3.863281 2.925781 0.710938 7.085938 0.710938 12 Z M 0.710938 12 "/>
<path style=" stroke:none;fill-rule:nonzero;fill:rgb(92.941176%,29.803922%,36.078431%);fill-opacity:1;" d="M 23.210938 12 C 23.210938 7.085938 20.101562 2.925781 15.710938 1.386719 L 15.710938 22.613281 C 20.101562 21.074219 23.210938 16.914062 23.210938 12 "/>
<path style=" stroke:none;fill-rule:nonzero;fill:rgb(100%,100%,100%);fill-opacity:1;" d="M 8.210938 22.613281 C 9.375 23.023438 10.648438 23.25 11.960938 23.25 C 13.273438 23.25 14.550781 23.023438 15.710938 22.613281 L 15.710938 1.386719 C 14.550781 0.976562 13.3125 0.75 11.960938 0.75 C 10.613281 0.75 9.375 0.976562 8.210938 1.386719 L 8.210938 22.613281 "/>
</g>
</svg>
