<?xml version="1.0" encoding="UTF-8"?>
<svg xmlns="http://www.w3.org/2000/svg" xmlns:xlink="http://www.w3.org/1999/xlink" width="24px" height="24px" viewBox="0 0 24 24" version="1.1">
<g id="surface1">
<path style=" stroke:none;fill-rule:nonzero;fill:rgb(72.156863%,78.823529%,85.098039%);fill-opacity:1;" d="M 21.652344 6.261719 L 15.035156 6.261719 C 14.804688 6.261719 14.582031 6.363281 14.433594 6.546875 C 14.285156 6.726562 14.222656 6.964844 14.269531 7.191406 L 16.007812 16.171875 L 8.921875 16.171875 C 8.6875 16.171875 8.464844 16.277344 8.316406 16.460938 C 8.167969 16.640625 8.109375 16.878906 8.15625 17.109375 L 9.40625 23.371094 C 9.484375 23.75 9.804688 23.984375 10.144531 24 L 21.652344 24 C 22.945312 24 24 22.945312 24 21.652344 L 24 8.609375 C 24 7.3125 22.945312 6.261719 21.652344 6.261719 Z M 21.652344 6.261719 "/>
<path style=" stroke:none;fill-rule:nonzero;fill:rgb(90.196078%,95.294118%,100%);fill-opacity:1;" d="M 21.652344 13.304688 L 19.304688 13.304688 L 19.304688 12.523438 C 19.304688 12.089844 18.953125 11.738281 18.523438 11.738281 C 18.089844 11.738281 17.738281 12.089844 17.738281 12.523438 L 17.738281 13.304688 L 15.390625 13.304688 C 14.960938 13.304688 14.609375 13.65625 14.609375 14.085938 C 14.609375 14.519531 14.960938 14.871094 15.390625 14.871094 L 16.234375 14.871094 C 16.382812 15.800781 16.808594 16.507812 17.433594 17.21875 C 17.097656 17.546875 16.773438 17.859375 16.402344 18.230469 C 16.097656 18.535156 16.097656 19.03125 16.402344 19.335938 C 16.707031 19.640625 17.203125 19.640625 17.511719 19.335938 C 17.875 18.96875 18.199219 18.660156 18.523438 18.34375 C 18.84375 18.660156 19.167969 18.96875 19.535156 19.335938 C 19.839844 19.640625 20.335938 19.640625 20.640625 19.335938 C 20.945312 19.03125 20.945312 18.535156 20.640625 18.230469 C 20.269531 17.859375 19.945312 17.546875 19.613281 17.21875 C 20.234375 16.507812 20.660156 15.800781 20.808594 14.871094 L 21.652344 14.871094 C 22.085938 14.871094 22.433594 14.519531 22.433594 14.085938 C 22.433594 13.65625 22.085938 13.304688 21.652344 13.304688 Z M 18.523438 16.089844 C 18.179688 15.679688 17.953125 15.304688 17.835938 14.871094 L 19.207031 14.871094 C 19.089844 15.304688 18.863281 15.679688 18.523438 16.089844 Z M 18.523438 16.089844 "/>
<path style=" stroke:none;fill-rule:nonzero;fill:rgb(15.686275%,37.647059%,80%);fill-opacity:1;" d="M 17.683594 16.671875 C 17.566406 16.371094 17.277344 16.171875 16.957031 16.171875 L 8.921875 16.171875 C 8.6875 16.171875 8.464844 16.277344 8.316406 16.460938 C 8.167969 16.640625 8.109375 16.878906 8.15625 17.109375 L 9.40625 23.371094 C 9.484375 23.75 9.804688 23.984375 10.144531 24 C 10.167969 24 10.191406 24 10.214844 24 C 10.386719 23.992188 10.5625 23.925781 10.707031 23.792969 L 17.488281 17.53125 C 17.722656 17.3125 17.800781 16.972656 17.683594 16.671875 Z M 17.683594 16.671875 "/>
<path style=" stroke:none;fill-rule:nonzero;fill:rgb(8.627451%,49.411765%,90.196078%);fill-opacity:1;" d="M 16.957031 17.738281 L 2.347656 17.738281 C 1.054688 17.738281 0 16.6875 0 15.390625 L 0 2.347656 C 0 1.054688 1.054688 0 2.347656 0 L 13.824219 0 C 14.199219 0 14.523438 0.265625 14.59375 0.632812 L 17.726562 16.808594 C 17.769531 17.035156 17.707031 17.273438 17.558594 17.453125 C 17.410156 17.632812 17.191406 17.738281 16.957031 17.738281 Z M 16.957031 17.738281 "/>
<path style=" stroke:none;fill-rule:nonzero;fill:rgb(90.196078%,95.294118%,100%);fill-opacity:1;" d="M 7.824219 12 C 6.101562 12 4.695312 10.59375 4.695312 8.871094 C 4.695312 7.144531 6.101562 5.738281 7.824219 5.738281 C 8.25 5.738281 8.660156 5.824219 9.046875 5.988281 C 9.441406 6.15625 9.628906 6.617188 9.457031 7.015625 C 9.289062 7.410156 8.832031 7.597656 8.429688 7.425781 C 8.242188 7.34375 8.035156 7.304688 7.824219 7.304688 C 6.960938 7.304688 6.261719 8.003906 6.261719 8.871094 C 6.261719 9.734375 6.960938 10.433594 7.824219 10.433594 C 8.402344 10.433594 8.910156 10.121094 9.183594 9.652344 L 8.609375 9.652344 C 8.175781 9.652344 7.824219 9.300781 7.824219 8.871094 C 7.824219 8.4375 8.175781 8.085938 8.609375 8.085938 L 10.175781 8.085938 C 10.605469 8.085938 10.957031 8.4375 10.957031 8.871094 C 10.957031 10.59375 9.550781 12 7.824219 12 Z M 7.824219 12 "/>
</g>
</svg>
