<?xml version="1.0" encoding="UTF-8"?>
<svg xmlns="http://www.w3.org/2000/svg" xmlns:xlink="http://www.w3.org/1999/xlink" width="24px" height="24px" viewBox="0 0 24 24" version="1.1">
<g id="surface1">
<path style=" stroke:none;fill-rule:nonzero;fill:rgb(92.941176%,29.803922%,36.078431%);fill-opacity:1;" d="M 23.25 12 C 23.25 18.214844 18.214844 23.25 12 23.25 C 5.785156 23.25 0.75 18.214844 0.75 12 C 0.75 5.785156 5.785156 0.75 12 0.75 C 18.214844 0.75 23.25 5.785156 23.25 12 Z M 23.25 12 "/>
<path style=" stroke:none;fill-rule:nonzero;fill:rgb(100%,100%,100%);fill-opacity:1;" d="M 18.488281 12 C 18.488281 15.582031 15.582031 18.488281 12 18.488281 C 8.417969 18.488281 5.511719 15.582031 5.511719 12 C 5.511719 8.417969 8.417969 5.511719 12 5.511719 C 15.582031 5.511719 18.488281 8.417969 18.488281 12 Z M 18.488281 12 "/>
<path style=" stroke:none;fill-rule:nonzero;fill:rgb(92.941176%,29.803922%,36.078431%);fill-opacity:1;" d="M 16.875 12 C 16.875 14.691406 14.691406 16.875 12 16.875 C 9.308594 16.875 7.125 14.691406 7.125 12 C 7.125 9.308594 9.308594 7.125 12 7.125 C 14.691406 7.125 16.875 9.308594 16.875 12 Z M 16.875 12 "/>
<path style=" stroke:none;fill-rule:nonzero;fill:rgb(100%,100%,100%);fill-opacity:1;" d="M 17.210938 12 C 17.210938 14.152344 15.464844 15.898438 13.3125 15.898438 C 11.160156 15.898438 9.414062 14.152344 9.414062 12 C 9.414062 9.847656 11.160156 8.101562 13.3125 8.101562 C 15.464844 8.101562 17.210938 9.847656 17.210938 12 Z M 17.210938 12 "/>
<path style=" stroke:none;fill-rule:nonzero;fill:rgb(92.941176%,29.803922%,36.078431%);fill-opacity:1;" d="M 14.398438 12 L 15.675781 10.273438 L 13.648438 10.949219 L 12.414062 9.226562 L 12.414062 11.363281 L 10.386719 12 L 12.414062 12.636719 L 12.414062 14.773438 L 13.648438 13.050781 L 15.675781 13.726562 Z M 14.398438 12 "/>
</g>
</svg>
