<?xml version="1.0" encoding="UTF-8"?>
<svg xmlns="http://www.w3.org/2000/svg" xmlns:xlink="http://www.w3.org/1999/xlink" width="24px" height="24px" viewBox="0 0 24 24" version="1.1">
<g id="surface1">
<path style=" stroke:none;fill-rule:nonzero;fill:rgb(16.078431%,20%,47.843137%);fill-opacity:1;" d="M 2.113281 5.199219 C 1.339844 6.324219 0.75 7.585938 0.394531 8.941406 L 5.851562 8.941406 Z M 2.113281 5.199219 "/>
<path style=" stroke:none;fill-rule:nonzero;fill:rgb(16.078431%,20%,47.843137%);fill-opacity:1;" d="M 8.640625 0.480469 C 7.257812 0.882812 5.976562 1.527344 4.847656 2.363281 L 8.640625 6.152344 Z M 8.640625 0.480469 "/>
<path style=" stroke:none;fill-rule:nonzero;fill:rgb(16.078431%,20%,47.843137%);fill-opacity:1;" d="M 5.128906 21.835938 C 6.1875 22.578125 7.371094 23.148438 8.640625 23.519531 L 8.640625 18.328125 Z M 5.128906 21.835938 "/>
<path style=" stroke:none;fill-rule:nonzero;fill:rgb(16.078431%,20%,47.843137%);fill-opacity:1;" d="M 0.53125 15.542969 C 0.929688 16.828125 1.539062 18.019531 2.3125 19.082031 L 5.851562 15.542969 Z M 0.53125 15.542969 "/>
<path style=" stroke:none;fill-rule:nonzero;fill:rgb(100%,100%,100%);fill-opacity:1;" d="M 2.3125 4.921875 C 2.246094 5.015625 2.179688 5.105469 2.113281 5.199219 L 5.851562 8.941406 L 0.394531 8.941406 C 0.304688 9.277344 0.234375 9.621094 0.175781 9.96875 L 7.359375 9.96875 Z M 2.3125 4.921875 "/>
<path style=" stroke:none;fill-rule:nonzero;fill:rgb(100%,100%,100%);fill-opacity:1;" d="M 4.851562 21.636719 C 4.945312 21.707031 5.039062 21.769531 5.128906 21.835938 L 8.640625 18.328125 L 8.640625 23.519531 C 8.976562 23.617188 9.320312 23.703125 9.667969 23.769531 L 9.667969 16.824219 Z M 4.851562 21.636719 "/>
<path style=" stroke:none;fill-rule:nonzero;fill:rgb(100%,100%,100%);fill-opacity:1;" d="M 0.265625 14.515625 C 0.339844 14.863281 0.429688 15.207031 0.53125 15.542969 L 5.851562 15.542969 L 2.3125 19.082031 C 2.699219 19.605469 3.125 20.101562 3.589844 20.558594 L 9.628906 14.515625 Z M 0.265625 14.515625 "/>
<path style=" stroke:none;fill-rule:nonzero;fill:rgb(100%,100%,100%);fill-opacity:1;" d="M 8.640625 0.480469 L 8.640625 6.152344 L 4.847656 2.363281 C 4.324219 2.753906 3.835938 3.183594 3.386719 3.652344 L 9.667969 9.933594 L 9.667969 0.226562 C 9.320312 0.296875 8.976562 0.382812 8.640625 0.480469 Z M 8.640625 0.480469 "/>
<path style=" stroke:none;fill-rule:nonzero;fill:rgb(82.745098%,12.54902%,18.823529%);fill-opacity:1;" d="M 8.640625 15.507812 L 8.601562 15.542969 L 8.640625 15.542969 Z M 8.640625 15.507812 "/>
<path style=" stroke:none;fill-rule:nonzero;fill:rgb(82.745098%,12.54902%,18.823529%);fill-opacity:1;" d="M 9.632812 14.515625 L 9.667969 14.515625 L 9.667969 14.480469 Z M 9.632812 14.515625 "/>
<path style=" stroke:none;fill-rule:nonzero;fill:rgb(82.745098%,12.54902%,18.823529%);fill-opacity:1;" d="M 14.25 9.96875 L 14.214844 9.96875 L 14.214844 10.003906 Z M 14.25 9.96875 "/>
<path style=" stroke:none;fill-rule:nonzero;fill:rgb(82.745098%,12.54902%,18.823529%);fill-opacity:1;" d="M 8.675781 8.941406 L 8.640625 8.90625 L 8.640625 8.941406 Z M 8.675781 8.941406 "/>
<path style=" stroke:none;fill-rule:nonzero;fill:rgb(82.745098%,12.54902%,18.823529%);fill-opacity:1;" d="M 9.667969 9.933594 L 9.667969 9.96875 L 9.703125 9.96875 Z M 9.667969 9.933594 "/>
<path style=" stroke:none;fill-rule:nonzero;fill:rgb(14.509804%,18.431373%,42.352941%);fill-opacity:1;" d="M 15.242188 20.863281 L 15.242188 23.554688 C 16.527344 23.191406 17.726562 22.625 18.800781 21.886719 L 15.882812 18.972656 C 15.652344 19.789062 15.566406 20.210938 15.242188 20.863281 Z M 15.242188 20.863281 "/>
<path style=" stroke:none;fill-rule:nonzero;fill:rgb(14.509804%,18.431373%,42.352941%);fill-opacity:1;" d="M 15.898438 5.496094 L 19.082031 2.3125 C 17.9375 1.476562 16.640625 0.839844 15.242188 0.445312 L 15.242188 3.210938 C 15.617188 3.960938 15.648438 4.527344 15.898438 5.496094 Z M 15.898438 5.496094 "/>
<path style=" stroke:none;fill-rule:nonzero;fill:rgb(14.509804%,18.431373%,42.352941%);fill-opacity:1;" d="M 21.636719 19.152344 C 22.4375 18.074219 23.0625 16.855469 23.46875 15.542969 L 18.027344 15.542969 Z M 21.636719 19.152344 "/>
<path style=" stroke:none;fill-rule:nonzero;fill:rgb(14.509804%,18.431373%,42.352941%);fill-opacity:1;" d="M 23.605469 8.941406 C 23.242188 7.554688 22.636719 6.273438 21.835938 5.128906 L 18.027344 8.941406 Z M 23.605469 8.941406 "/>
<path style=" stroke:none;fill-rule:nonzero;fill:rgb(90.588235%,90.588235%,90.588235%);fill-opacity:1;" d="M 16.601562 14.71875 L 17.425781 15.542969 L 21.371094 19.492188 C 21.460938 19.378906 21.550781 19.265625 21.636719 19.152344 L 18.027344 15.542969 L 23.46875 15.542969 C 23.570312 15.207031 23.660156 14.863281 23.734375 14.515625 L 16.675781 14.515625 C 16.667969 14.660156 16.613281 14.574219 16.601562 14.71875 Z M 16.601562 14.71875 "/>
<path style=" stroke:none;fill-rule:nonzero;fill:rgb(90.588235%,90.588235%,90.588235%);fill-opacity:1;" d="M 15.773438 6.097656 L 19.351562 2.519531 C 19.261719 2.449219 19.171875 2.382812 19.082031 2.3125 L 15.898438 5.496094 C 15.933594 5.621094 15.746094 5.96875 15.773438 6.097656 Z M 15.773438 6.097656 "/>
<path style=" stroke:none;fill-rule:nonzero;fill:rgb(90.588235%,90.588235%,90.588235%);fill-opacity:1;" d="M 15.242188 2.988281 L 15.242188 0.445312 C 14.90625 0.351562 14.5625 0.273438 14.214844 0.207031 L 14.214844 1.445312 C 14.597656 1.863281 14.9375 2.382812 15.242188 2.988281 Z M 15.242188 2.988281 "/>
<path style=" stroke:none;fill-rule:nonzero;fill:rgb(90.588235%,90.588235%,90.588235%);fill-opacity:1;" d="M 16.519531 9.96875 L 23.824219 9.96875 C 23.765625 9.621094 23.695312 9.277344 23.605469 8.941406 L 18.027344 8.941406 L 21.835938 5.128906 C 21.460938 4.59375 21.046875 4.09375 20.589844 3.625 L 16.300781 7.917969 C 16.414062 8.695312 16.46875 9.148438 16.519531 9.96875 Z M 16.519531 9.96875 "/>
<path style=" stroke:none;fill-rule:nonzero;fill:rgb(90.588235%,90.588235%,90.588235%);fill-opacity:1;" d="M 15.710938 18.796875 L 18.800781 21.886719 C 19.3125 21.53125 19.796875 21.140625 20.25 20.710938 L 16.1875 16.648438 C 16.054688 17.398438 15.902344 18.125 15.710938 18.796875 Z M 15.710938 18.796875 "/>
<path style=" stroke:none;fill-rule:nonzero;fill:rgb(90.588235%,90.588235%,90.588235%);fill-opacity:1;" d="M 14.214844 22.410156 L 14.214844 23.792969 C 14.5625 23.726562 14.90625 23.648438 15.242188 23.554688 L 15.242188 20.863281 C 14.9375 21.46875 14.597656 21.996094 14.214844 22.410156 Z M 14.214844 22.410156 "/>
<path style=" stroke:none;fill-rule:nonzero;fill:rgb(84.313725%,12.156863%,15.686275%);fill-opacity:1;" d="M 16.300781 7.917969 L 20.589844 3.625 C 20.203125 3.230469 19.789062 2.859375 19.351562 2.519531 L 15.980469 5.890625 C 16.128906 6.519531 16.199219 7.234375 16.300781 7.917969 Z M 16.300781 7.917969 "/>
<path style=" stroke:none;fill-rule:nonzero;fill:rgb(82.745098%,12.54902%,18.823529%);fill-opacity:1;" d="M 11.402344 0.015625 C 11.601562 0.00390625 11.800781 0 12 0 C 11.800781 0 11.597656 0.00390625 11.402344 0.015625 Z M 11.402344 0.015625 "/>
<path style=" stroke:none;fill-rule:nonzero;fill:rgb(82.745098%,12.54902%,18.823529%);fill-opacity:1;" d="M 12 24 C 11.800781 24 11.601562 23.996094 11.402344 23.984375 C 11.601562 23.996094 11.800781 24 12 24 Z M 12 24 "/>
<path style=" stroke:none;fill-rule:nonzero;fill:rgb(82.745098%,12.54902%,18.823529%);fill-opacity:1;" d="M 12 24 C 12.757812 24 13.496094 23.925781 14.214844 23.792969 L 14.214844 22.410156 C 13.585938 23.09375 12.847656 24 12 24 Z M 12 24 "/>
<path style=" stroke:none;fill-rule:nonzero;fill:rgb(84.313725%,12.156863%,15.686275%);fill-opacity:1;" d="M 23.824219 9.96875 L 16.613281 9.96875 C 16.710938 11.472656 16.699219 13.019531 16.578125 14.515625 L 23.734375 14.515625 C 23.90625 13.703125 24 12.863281 24 12 C 24 11.308594 23.9375 10.628906 23.824219 9.96875 Z M 23.824219 9.96875 "/>
<path style=" stroke:none;fill-rule:nonzero;fill:rgb(84.313725%,12.156863%,15.686275%);fill-opacity:1;" d="M 16.601562 14.71875 C 16.535156 15.429688 16.300781 15.980469 16.1875 16.648438 L 20.25 20.710938 C 20.648438 20.332031 21.027344 19.921875 21.371094 19.492188 L 17.425781 15.542969 Z M 16.601562 14.71875 "/>
<path style=" stroke:none;fill-rule:nonzero;fill:rgb(82.745098%,12.54902%,18.823529%);fill-opacity:1;" d="M 14.214844 1.535156 L 14.214844 0.207031 C 13.496094 0.0742188 12.757812 0 12 0 C 12.847656 0 13.585938 0.851562 14.214844 1.535156 Z M 14.214844 1.535156 "/>
<path style=" stroke:none;fill-rule:nonzero;fill:rgb(16.078431%,20%,47.843137%);fill-opacity:1;" d="M 15.242188 21.382812 C 15.566406 20.730469 15.84375 19.984375 16.078125 19.164062 L 15.242188 18.328125 Z M 15.242188 21.382812 "/>
<path style=" stroke:none;fill-rule:nonzero;fill:rgb(16.078431%,20%,47.843137%);fill-opacity:1;" d="M 16.183594 5.214844 C 15.929688 4.246094 15.617188 3.367188 15.242188 2.617188 L 15.242188 6.152344 Z M 16.183594 5.214844 "/>
<path style=" stroke:none;fill-rule:nonzero;fill:rgb(100%,100%,100%);fill-opacity:1;" d="M 16.832031 14.953125 C 16.847656 14.808594 16.859375 14.660156 16.871094 14.515625 L 16.398438 14.515625 Z M 16.832031 14.953125 "/>
<path style=" stroke:none;fill-rule:nonzero;fill:rgb(100%,100%,100%);fill-opacity:1;" d="M 15.242188 6.152344 L 15.242188 2.617188 C 14.9375 2.011719 14.597656 1.492188 14.214844 1.078125 L 14.214844 7.660156 L 16.277344 5.59375 C 16.246094 5.464844 16.214844 5.339844 16.183594 5.214844 Z M 15.242188 6.152344 "/>
<path style=" stroke:none;fill-rule:nonzero;fill:rgb(100%,100%,100%);fill-opacity:1;" d="M 14.25 9.96875 L 16.90625 9.96875 C 16.851562 9.148438 16.769531 8.339844 16.65625 7.5625 Z M 14.25 9.96875 "/>
<path style=" stroke:none;fill-rule:nonzero;fill:rgb(100%,100%,100%);fill-opacity:1;" d="M 14.214844 22.921875 C 14.597656 22.507812 14.9375 21.988281 15.242188 21.382812 L 15.242188 18.328125 L 16.078125 19.164062 C 16.269531 18.492188 16.429688 17.773438 16.5625 17.023438 L 14.214844 14.675781 Z M 14.214844 22.921875 "/>
<path style=" stroke:none;fill-rule:nonzero;fill:rgb(89.803922%,11.372549%,20.784314%);fill-opacity:1;" d="M 14.214844 22.921875 L 14.214844 14.675781 L 16.558594 17.023438 C 16.675781 16.355469 16.765625 15.660156 16.832031 14.953125 L 16.398438 14.515625 L 16.871094 14.515625 C 16.988281 13.019531 17 11.472656 16.90625 9.96875 L 14.25 9.96875 L 16.65625 7.5625 C 16.554688 6.878906 16.429688 6.222656 16.277344 5.59375 L 14.214844 7.660156 L 14.214844 1.078125 C 13.585938 0.394531 12.847656 0 12 0 C 11.800781 0 11.601562 0.00390625 11.402344 0.015625 C 10.8125 0.0429688 10.230469 0.117188 9.667969 0.226562 L 9.667969 9.933594 L 3.386719 3.652344 C 3 4.050781 2.640625 4.472656 2.3125 4.921875 L 6.328125 8.941406 L 7.359375 9.96875 L 0.175781 9.96875 C 0.0625 10.628906 0 11.308594 0 12 C 0 12.863281 0.09375 13.703125 0.265625 14.515625 L 9.632812 14.515625 L 3.589844 20.558594 C 3.984375 20.945312 4.40625 21.308594 4.851562 21.636719 L 9.667969 16.824219 L 9.667969 23.769531 C 10.230469 23.882812 10.8125 23.957031 11.402344 23.984375 C 11.601562 23.996094 11.800781 24 12 24 C 12.847656 24 13.585938 23.605469 14.214844 22.921875 Z M 14.214844 22.921875 "/>
</g>
</svg>
